/* XPM */
static char *axe1672242446[] = {
/* columns rows colors chars-per-pixel */
"60 60 247 2 ",
"   c #170605",
".  c #150A0C",
"X  c #231918",
"o  c #300D0E",
"O  c #202000",
"+  c #420D14",
"@  c #6D111D",
"#  c #603C0A",
"$  c #4E182F",
"%  c #552D34",
"&  c #6D2734",
"*  c #5E2322",
"=  c #523E46",
"-  c #792C4F",
";  c #772B67",
":  c #7D2F76",
">  c #6C4755",
",  c #5F5E63",
"<  c #7A5D62",
"1  c #7B6876",
"2  c #59524C",
"3  c #AD370C",
"4  c #8D0E2A",
"5  c #AB1D37",
"6  c #86213F",
"7  c #B22C2C",
"8  c #912400",
"9  c #CF1938",
"0  c #EB3039",
"q  c #CB3D28",
"w  c #B0450B",
"e  c #BB4039",
"r  c #8D7130",
"t  c #D26C10",
"y  c #D35035",
"u  c #F14E39",
"i  c #ED752F",
"p  c #DD6B17",
"a  c #AE1946",
"s  c #92344D",
"d  c #BA2B4B",
"f  c #B92656",
"g  c #A92752",
"h  c #852C6B",
"j  c #8A2E70",
"k  c #963676",
"l  c #8D346F",
"z  c #A6397C",
"x  c #B93A7C",
"c  c #B4346A",
"v  c #DC1C58",
"b  c #D51A4D",
"n  c #EA1C4B",
"m  c #FB1F4F",
"M  c #E51C53",
"N  c #EB1B54",
"B  c #E31D5B",
"V  c #EB1958",
"C  c #F61A58",
"Z  c #E80F56",
"A  c #CA2747",
"S  c #D82749",
"D  c #CD2757",
"F  c #D92759",
"G  c #DE3358",
"H  c #D33552",
"J  c #E8264A",
"K  c #E42354",
"L  c #EA2356",
"P  c #E4235D",
"I  c #EA235B",
"U  c #E42B5C",
"Y  c #EB2B5B",
"T  c #E42C54",
"R  c #F52559",
"E  c #E33557",
"W  c #F2364D",
"Q  c #DB1F65",
"!  c #D81D71",
"~  c #E41E63",
"^  c #E91C67",
"/  c #F41C67",
"(  c #EA1F71",
")  c #C92765",
"_  c #DC2463",
"`  c #DC2B65",
"'  c #DE246D",
"]  c #D42D6C",
"[  c #DB2A6B",
"{  c #D42869",
"}  c #C93469",
"|  c #D3316D",
" . c #DB3267",
".. c #CE2D7D",
"X. c #CA2D76",
"o. c #DC2573",
"O. c #D42B74",
"+. c #D92A73",
"@. c #D6267D",
"#. c #D9257C",
"$. c #D32A7B",
"%. c #D12770",
"&. c #CC3375",
"*. c #C6357C",
"=. c #CA327B",
"-. c #C3397D",
";. c #C7397A",
":. c #D13172",
">. c #DB3577",
",. c #E42363",
"<. c #EA2361",
"1. c #E32A64",
"2. c #E2236A",
"3. c #E32A6A",
"4. c #EB2767",
"5. c #F22462",
"6. c #F62866",
"7. c #E93365",
"8. c #E12271",
"9. c #E52B75",
"0. c #EE2E71",
"q. c #967273",
"w. c #B34D74",
"e. c #CD4E4C",
"r. c #E34744",
"t. c #F3474D",
"y. c #F46C52",
"u. c #C94C6E",
"i. c #DB7D4A",
"p. c #E6960C",
"a. c #EC8A0D",
"s. c #E9A706",
"d. c #F9A914",
"f. c #F6AD11",
"g. c #FE922D",
"h. c #EA9230",
"j. c #F9A72D",
"k. c #FFB825",
"l. c #F1A42B",
"z. c #CBAF2A",
"x. c #FBEA15",
"c. c #FFD52C",
"v. c #F7E624",
"b. c #FAC20D",
"n. c #FFAB44",
"m. c #FF8A5A",
"M. c #7D5DC6",
"N. c #7D5DC8",
"B. c #7760C8",
"V. c #7960C8",
"C. c #993C84",
"Z. c #983B97",
"A. c #8A3C87",
"S. c #A93C87",
"D. c #B63D85",
"F. c #BC3B84",
"G. c #BE358C",
"H. c #B63D8C",
"J. c #BB3A8B",
"K. c #B83680",
"L. c #AD3F9D",
"P. c #BD3593",
"I. c #B53C95",
"U. c #BA3993",
"Y. c #BA359A",
"T. c #B23C9B",
"R. c #B8389B",
"E. c #AD3EA2",
"W. c #B13CA1",
"Q. c #CC2D83",
"!. c #CD2A8D",
"~. c #C82D8B",
"^. c #D62583",
"/. c #D82383",
"(. c #D12A82",
"). c #D3258B",
"_. c #D1288B",
"`. c #C53385",
"'. c #C93183",
"]. c #C13A82",
"[. c #C3338B",
"{. c #C13A8B",
"}. c #CA3788",
"|. c #C52E93",
" X c #CD2A92",
".X c #CE2790",
"XX c #D12690",
"oX c #C23194",
"OX c #C03298",
"+X c #D83181",
"@X c #F71988",
"#X c #8F4289",
"$X c #9E4C9E",
"%X c #984599",
"&X c #A5418A",
"*X c #B4418D",
"=X c #BB4887",
"-X c #AB4495",
";X c #A4469C",
":X c #AB439C",
">X c #A34A9C",
",X c #A64796",
"<X c #B24293",
"1X c #B74497",
"2X c #9B7E83",
"3X c #9D4CA4",
"4X c #9E47AA",
"5X c #964EAE",
"6X c #9B4BAB",
"7X c #9B48A4",
"8X c #9A50A6",
"9X c #9552AC",
"0X c #9950AA",
"qX c #944EB2",
"wX c #9A4CB1",
"eX c #924FB8",
"rX c #8C55B4",
"tX c #8656BC",
"yX c #8B55BA",
"uX c #8559BC",
"iX c #8857BB",
"pX c #9252B3",
"aX c #9152B9",
"sX c #A544A4",
"dX c #A942A2",
"fX c #A14AA2",
"gX c #A245A9",
"hX c #A148AB",
"jX c #B445A4",
"kX c #C84382",
"lX c #825AC3",
"zX c #9B8587",
"xX c #AF8D97",
"cX c #BAA6A8",
"vX c #C5B3B6",
"bX c #D2B0B3",
"nX c #D9A6B0",
"mX c #F7E8AD",
"MX c #A9AEC2",
"NX c #CCA9C7",
"BX c #D4CDC5",
"VX c #F8D2D6",
"CX c #FDE7D5",
"ZX c #FBDEE7",
"AX c #FFEBFA",
"SX c #FFFAFF",
"DX c #E9E7E8",
/* pixels */
").)./././.XX/././.( /.( #.( 8.8.^ _ 2.~ <.<.I I I I L I I I L Y L I L I I <.<.P _ ,.' 2.o.8.o.#.#.+X@.^.).)._.XX XXX XXX",
").).)./.XX@X/././.! 8./.8.! 8.8.~ ( ,.<.<.B I V K I I L L I L I I I L P <.<.<.<.1.2.,.' o.9.o.#.#.#.^.^.).).XX_. X X X X",
"XX)./.).)././././././.8.#.8.8.8.,.2.,.,.<.<.<.I I L I I I L I I I L B I P <.<.<.,.2.2.' o.o.#.8.#.+X/.^.).)._.XX X X XXX",
"XX).).)./.)./././.8./.8.( 8.8.8.2.2.,.^ <.<.I V K I L I I I Y L L I L I I <.<.<.,.,.1.' 8.8.8.#.@.#.#.^.)._._.). X XXX X",
").).).)./.XX/././.! /./.o.! ' ( ^ 2.,.<.<.<.I I L L I L L L I L I L I I I P <.<.,.2.2.2.' o.8.#.@.@./.^./.).).XX X_. XXX",
").XX)./././././.#./.8.8.o.8.8.8.<.2.,.^ <.~ <.I L I L I I Y I I I L I I <.<.<.P ,.~ 2.2.8.8.o.o.#.#.#./.+X).).)._. X X X",
").XX).)./.)././.#.#./.8.o.8.2.8.2.2.,.,.I I I I L L L I L I L Y L I I P I <.<.<.,.,.2.2.' ! o.o.#.#.9././.).).)..X.X.X!.",
"XX).).).)././.)./.#.#.#.o.o.o.2.2.^ <.,.<.~ <.V L L I L Y I L I I L I I <.<.<.<.,.2.2.2.8.8.o.o.+.#.+X/.).+X).XX_..X!..X",
"XXXX).).^.)./.^.! @.! ! o.! ( ' 8.8.,.v 4.U Y / ( o.L J T M R V N R I I V V P 3.,.,.,.2.! 8.o.o.#.#.#.@.^.).^._._._._._.",
").XX).).).).)./././.#./.o.8.' ! 8.2.,.B ,.v L V J R R C m U F L M K K L 5.5.<.B ~ ,.,.2.2.8.o.o.#.#.#./.^.^._.^._._._._.",
"XXXXXX).).^..X! #././.! o.o.o.2.' 2.4.,.<.I I L n 0 S ) R C V J Y I I F P I 5.B F ,.2.2.2.o.8.o.9.#.#.@.^.^.^.).).)._._.",
"XXXXXXXX).).).)./.#./.#.o.o.' o._ 4.4.v <.6./ S @XY K V 5.L 7.N I K I I B B <.<.~ ,.,.2.~ o.o.8.+.#.#.#.@.^.^.).^.).).).",
"XXXX.X.X.XXX).(.^.@.@.@.! o.2.8.{ <.2.v K / ~ r.0 n 7.G <.m W F N N V R <.B P <.P <.,.' ' ' ' o.o.#.9.#.^./.^.).(._.).(.",
"XXXX.X.XXXXX.X).^.^.^.! #.! ! 8.o.B 2.3.M ^ ^ y.v.t.D + o 4 5 7.Y R N N 5.I F ,.P <.,.,.( o.' o.o.o.#.@.#.@.^.^.).).^.).",
"XX.X.X.X.X)..XX.^.@.@.@.#.o.o.o.+.V ( 3.T / ~ m.v.p @ 1 q.%   o A Y I N <.<.v 4.B P ,.,.2.2.o.8.o.o.#.#.(.@.^.^.^.).^.^.",
"XX.X.X.X).).).).(.^.(.@.o.o.o.8.%.5.8._ S / v i.i n.# MXSXZXbX> 4 D 7.M 5.I v <.<.,.<.2.2.2.8.2.#.o.o.@.#./.+X/.^.^.^.).",
"~..X X X.X!.!._._.(.(.@.o.o.o.8.' Q [ V 4.M R u.g.x.mXDXNXcXAXVX< v 6.S M 5.C 1.~ P ,.,.,.' ' o.8.o.#.o.#.#.@.^.(.^.@.).",
"|.|.|. X.X_.Q._.(.(.@.@.$.o.o.{ 2.Q ' 4.B U U @ % mXCXAXq.  = xXVXo M C 7.M P <.<.,.<.,.' 2.' ' o.8.+.#.#.@.#.@.^.^.^.^.",
" X|.|. X X!.!.Q.!.(.(.@.o.+.o.' 2.4.,.[ P F 6 % , AXZX1 % . X . 2 & F M U 5.M <.<.P ,.,.,.' ' ' o.o.o.#.#.@.@./.^.@.^.^.",
"|.P.|.|.|. X!.Q.Q.Q.Q.@.@.O.+.+.' 4.~ D 6.F   q.CXBXbX#   & g = + R b 1.N R / F P ,.,.,._ ' ( o.' o.o.o.#.@.@.@.^.^.(.^.",
"|.|.|.|.|. X}.~.!.Q._.(.$.>.o.o.+._ <.{ I F . 2XSXBXo z.r 7 Y 7.U L R R I V I ,.,.P ,.,.' ' ' ' ' o.o.+.o.@.#.@.@.@./.^.",
"P.|.|.Y.|.|.|.~.Q.Q.'.(.$.$.O.+.[ ] _ 7./ D X zXNX= $ v.j.W Z m C S 6.n 7.P F C P ,.<.,.,.2.2.o.o.' o.o.@.@.#.#.@.^.^.@.",
"P.Y.|.Y.oX|.oX}.Q.'.'.(.$.O.O.O.' >.Q 1.5.a   cXnX  % t d.y._ T Y L S U K P 6.I P P ,.~ ' 2.' ' ' o.o.+.#.#.@.#.@.@.@.@.",
"|.|.Y.|.oXoX~.|.~.~.'.(.$.$.O.+.8.+.3.v 4.d   cXxXO & t.v.d.W V L R <.n 6.V B 1.<.,.,.,.,.' ' ' ' o.o.o.#.@.#.@.#.^.#.@.",
"Y.Y.Y.Y.Y.|.|.P.~.~.[.Q...$.$.>.{ ( 6.F 0.a . bXzX$ R t.h.p.t.^ I <.J K 4.V K L P P 1.,.1.' [ 2.+.o.o.o.#.o.$.#.@.@.@.@.",
"Y.Y.Y.Y.|.Y.|.G.[.[.'.Q.'.$.O.O.:.) { ] / a   nXq.5 V F i c.g.u K I J J 4.<.L P ,.,.,._ ,.2.8.' ' o.+.o.o.$.o.#.@.^.(.^.",
"Y.R.Y.Y.Y.P.P.P.[.[.[.'.Q.$.>.O.9.>.[ F ` s X BX1 b K 7.u d.l.u.R 5.L J B I L 4._ ,.,.2.' ' 2.2.+.{ o.#.o.#.$.@.@...@.^.",
"R.R.R.R.Y.P.P.P.oX[.[.`.'.....$.{ [ ^ 9.[ @ X ZX2 9 U V T i f.g.J <.5.J K ,.L ,.,.,._ 1.` ' +.2.+.o.o.+.O.O.#.$.@.@.(.(.",
"R.W.W.Y.Y.Y.Y.U.{.{.oX`.'.=.=.X.X.:.2.>.0.f & cX- 9 m n 1.t.c.d.0 S <.L L 4.P <._ 1.' _ [ ' +.o.o.o.o.o.@.@.$.@.@.(.(.@.",
"W.R.W.W.W.Y.R.U.U.P.G.[.}.'.'...O.%._ ) ,.6.6 X f F m W 1.4.i.l.i G 4.L K 4.F <.` 1.[ ' 8.{ o.[ o.%.O.%.o.@.$.@...@...^.",
"L.W.W.W.T.R.U.T.Y.U.J.G.`.`...=.9.@.>.>.1.^ 5 + Y <.N Y I S y f.j.r.1.n M 3._ 3.3._ 3.' ' +.o.%.O.O.@.@.O.@.@.@.@.(.(.(.",
"E.W.W.W.W.T.T.I.U.U.J.G.`.}.'.'.X.u.{ { ] 2.) 1.F 5.U F C U I g.d.y P R I 9.F _ 3.3.[ [ ' +.+.o.O.o.O.O.@.O.@...@...(...",
"E.E.E.E.W.jXL.T.I.U.U.J.{.`.`.}.&.X.:.O.] ` ` ` ,.U L P U U E E s.j.G S R 3.8.) [ [ [ +.+.+.+.+.O.O.@.O.$.$.@.....(.(.(.",
"E.gX4XE.E.W.T.L.I.I.U.J.[.`.`.`.=.=.&.O.] [ ` 1.` U P U P P G S p.p.y ` Y U ` 7.[ ] [ ] %.+.O.%.$.O.O...........(.(.(.Q.",
"gXE.gXE.dXdXdX1XT.I.I.H.J.{.`.`.=.=.&.&.| ] [ ` 1.` G P ,.F P G e.a.p.S ` 2.%.%.] ] ] O.O.O.O...O.$...@.........(...Q.Q.",
"4XgXgXgXdXdX:XdX:XT.I.I.J.J.].].-.-.=.&.:.] ] [ ] ` ` ` 1.3.` ` S p s.q +.+.| G :.O.O.&.&.$.$.=.......X.X.Q.Q.Q.Q.Q.Q.Q.",
"4X4X4XgXgXdXsXdX:X:XI.I.H.J.J.J.].`.*.&.&.:.] ] ] ` ] ` ` [ ` ` G 7 t t _ | %.O.&.X...X.=...=.=...Q...Q.'.'.Q.Q.~.Q.`.Q.",
"4X4X4XwXhXgXsXsXdX:X:X-X<XH.J.J.].F.-.*.&.&.:.| ] | F ] ] ] [ ` >.d t f.7 H >.&.&.=.=.*.=.=.'.`.'.'.`.'.Q.'.~.Q.~.`.~.Q.",
"6X6XwXhXhXhXhXjXsX;X:X:X-XH.H.J.F.F.-.*.*.&.:.| &.| ] | | :. .| | ] e t w c +X} *.*.=.*.=.`.`.`.'.'.Q.`.[.'.[.~.`.`.~.`.",
"wXwXwXhXhXhXhXgXsXsX;X:XI.<XH.*XF.F.F.x -.&.&.&.=.:.} | | :.:.| u.9.A w s.A $.`.*.=.*.-.`.`.`.`.`.`.`.`.[.~.~.[.`.~.G.~.",
"qXqXqXwXwX6XhX6XfX>XsX;X:X:X<X<XD.F.J.].-.-.;.*.&.&.&.&.&.:.&.&.=.;.f w a.8 c -.F.`.`.`.[.[.`.`.[.[.G.`.G.[.[.G.G.`.G.G.",
"eXqXqXwXwXwXwX6XfX3XfX;X:X-X-XI.*XJ.=XF.`.-.;.;.;.&.&.&.&.;.;.&.&.kX{.g 3 t c G.x F.F.J.J.J.J.J.K.G.[.J.J.G.{.G.G.G.G.G.",
"eXqXqXqXpXwXwX5X4X3X3X;X>X:X-X<X*X*XH.F.].].-.`.;.-.*.*.;.;.-.-.;.;.kXg 8 a.u.Y.D.H.H.H.H.H.H.J.J.J.G.G.G.G.G.G.G.P.P.P.",
"eXeXpXpXqXpXqXwX6X6X3XfXsX:X:X:X<X<X*XF.F.F.x x ].-.-.-.-.`.-.-.[.x -.1Xc e.=XD.H.*XH.I.I.I.I.I.U.U.H.U.J.U.P.P.P.P.P.G.",
"yXyXeXyXaXpXpXqX6X6X6X3XfXsX:X:X-X<XI.*XH.D.F.F.=XF.F.].x ].F.K.{.x D.T.1XS.H.I.<X<X-XI.I.I.I.I.I.I.I.I.I.P.I.I.Y.I.P.I.",
"yXyXyXyXrXaXpXaX9X9X5X7XfXfX>X>X,X:X-X*X*X*X*XD.F.F.D.F.x x =XD.x *X=XS.w.L.S.jX-X-X:XL.:XT.T.L.L.L.I.I.I.I.I.Y.I.Y.I.Y.",
"yXyXyXyXaXyXrXaXpXpX5X5X3XfXfX;X,X,X-X<X*X*XD.S.x z z z z z z k l Z.Z.Z.Z.$X%X%X,X;X;X:X;XdX:X:XL.L.T.L.I.T.I.T.I.I.I.I.",
"lXlXyXyXyXyXyXaXpXpX5X6X6X3XfXfX;X:X:X-X-XS.S.z k k k l h h h ; - ; - - : s Z.k Z.%X$XfXsXdXdX;XL.L.L.T.T.T.T.I.I.I.Y.I.",
"lXlXlXlXeXyXtXyXrXrXrX9X9X8X3X3X;X>X;X,X-X&XS.S.l k k l l j h : ; ; ; : : A.A.#X%X7X7X7XfXfXsXsXdXdX:X:XL.L.L.L.L.L.L.L.",
"lXtXlXyXtXtXyXtXrXrX9X9X9X8X3X3X$X>X,X:X,X-X&X&X&X&X&X#XS.k #Xk #XA.#X#X#X%X%X%X7X7X7X4XhXhXhXgXdXsXdX:XL.L.L.E.L.L.L.L.",
"lXlXlXlXlXtXtXtXrXrXrX9X9X8X3X3X$X>X>X;X:X,X;X,X=X,X-X,X,X,X,X,X>X>X$X3X8X6XpX9X6X8X8X6X3X4X3XfXsXsXsXsXE.L.sXL.L.L.L.L.",
"M.lXlXlXtXlXtXtXrXrXrX9X9X0X5X3X$X>X;X>X>X,X,X,X-X-X,X:X,X;X,X,X>X3X3X3X6X5XqXqXpX9X5X6X6X6X4X4XfXhXsXsX7X7XL.sX;XL.sXL.",
"M.M.lXlXlXlXtXlXuXrXrXrX9X9X9X8X>X8X>X>X>X:X>X,X,X,X-X,X:X>XfX>X>XfX0X8X8XpXpXpXrXrXqX5X9X5XwX0X4X4XsX4XgXE.sXE.E.E.sXE.",
"N.M.M.lXlXlXlXtXrXuXuXrXrX9X9X8X8X8XfX8X>X>X>X>X>X,X>XjXfXfXfX3X8X8X8X9XpXpXpXpXrXrXrXrXpXpXwXwX3X6X7X4XsXgXsX4XsXdXsXL.",
"M.N.M.M.lXM.M.tXuXuXuXrXrX9X9X9X8X8X$X>X$X>X>X>X>X>X>XfXfXfX8X3X8X0X9X9XrXrXyXiXiXrXyXpXpXpXwXwX6X6X6X4XsXgXsXgXE.gXgXE.",
"M.M.M.M.M.M.tXM.uXuXuXrXrXrX9X9X8X8X8X8X$X>X>X>X$X$X>X$X$X$X8X8X9X9X9XpXrXrXiXiXtXtXyXyXaXaXpXwX5X6X6X4X7XgXgXgX4XE.sXE.",
"M.B.N.B.M.lXlXN.lXuXuXrXrX9XrXrX8X8X0X8X$XfX$X$X$X$XfXfX8X8X8X8X0X9XrXrXrXuXiXiXuXiXuXyXiXaXaXaXqXqX5X6X4X4XgXgXsXsXgXsX",
"N.N.B.M.M.lXlXlXuXuXiXiXrXrX9X9X8X8X8X8X3X$X8X>X$X$X8XfXfX8X8X9X9XpX9XrXrXuXiXuXuXiXuXyXiXaXaXaX5X5X5X4X4X4XgX4XsXsXsXsX",
"B.M.M.M.M.lXM.M.uXuXuXrXrXrXrX9X9X9X8X3X3XfX3X3X8X>XfX8XfX0X8X8X9X9XrXrXrXuXuXuXlXiXlXiXaXaXaXaX5XqXwX4X4X4X4XgXsXgXgXsX",
"B.B.B.M.M.M.M.M.uXuXuXuXrX9XrX9X9X8X8X8X$X8X>X>X$X$XfX>X8X0X0X8X9XrXrXrXuXuXuXlXlXlXiXiXiXaXaXwXqX5X5XwX4X4XgX4XgXgXgXZ."
};
