/* XPM */
static char *creeper1672242446[] = {
/* columns rows colors chars-per-pixel */
"60 60 251 2 ",
"   c #010201",
".  c #090001",
"X  c #000A00",
"o  c #06000A",
"O  c #0A000C",
"+  c #0B0C08",
"@  c #011400",
"#  c #001B00",
"$  c #091607",
"%  c #0E0111",
"&  c #141212",
"*  c #002200",
"=  c #012C00",
"-  c #0A2807",
";  c #013300",
":  c #3D7A35",
">  c #317C29",
",  c #4C7B4B",
"<  c #0E9806",
"1  c #0D9706",
"2  c #13940C",
"3  c #12990B",
"4  c #16970B",
"5  c #1B9514",
"6  c #1B9D14",
"7  c #179914",
"8  c #1A8C13",
"9  c #278D1D",
"0  c #24931B",
"q  c #239E1A",
"w  c #249917",
"e  c #1AA215",
"r  c #0BA40C",
"t  c #23A21C",
"y  c #22A417",
"u  c #2C8C22",
"i  c #2E8524",
"p  c #358B2A",
"a  c #348928",
"s  c #2B9422",
"d  c #2A9924",
"f  c #35932B",
"g  c #37952B",
"h  c #3D8D34",
"j  c #3B8935",
"k  c #3B9433",
"l  c #3C9936",
"z  c #2AA623",
"x  c #3DAD2D",
"c  c #34AC29",
"v  c #3AB12E",
"b  c #39B532",
"n  c #3DA931",
"m  c #448B3C",
"M  c #428937",
"N  c #44943B",
"B  c #49943E",
"V  c #449B3B",
"C  c #449937",
"Z  c #41AC2E",
"A  c #44AC34",
"S  c #49AD36",
"D  c #4CAC3B",
"F  c #47A63A",
"G  c #42B232",
"H  c #4BB33C",
"J  c #4BBA3C",
"K  c #46B837",
"L  c #51AC3A",
"P  c #4BC33D",
"I  c #48CA3B",
"U  c #51C23F",
"Y  c #468E42",
"T  c #4B8D45",
"R  c #4A8547",
"E  c #538B4C",
"W  c #469341",
"Q  c #4A9343",
"!  c #4C9B43",
"~  c #4E944A",
"^  c #459A41",
"/  c #519B46",
"(  c #53944C",
")  c #549B4B",
"_  c #539446",
"`  c #578C55",
"'  c #5D9B55",
"]  c #5A9856",
"[  c #619D5D",
"{  c #62935B",
"}  c #62885F",
"|  c #4DAD42",
" . c #4CA344",
".. c #55A44C",
"X. c #56AC4B",
"o. c #59AB4D",
"O. c #55A747",
"+. c #4CB342",
"@. c #4DBB41",
"#. c #4FBE48",
"$. c #53B245",
"%. c #52BC43",
"&. c #55B349",
"*. c #5AB34C",
"=. c #5BBC4C",
"-. c #56B948",
";. c #5CA455",
":. c #5CAC53",
">. c #5DA25A",
",. c #58A955",
"<. c #5DB352",
"1. c #5DBC52",
"2. c #5ABC55",
"3. c #62A35C",
"4. c #65AD5B",
"5. c #62AD57",
"6. c #61B355",
"7. c #62BB53",
"8. c #64B25A",
"9. c #64BB5C",
"0. c #69BC5C",
"q. c #69B45D",
"w. c #60BC4F",
"e. c #669E62",
"r. c #69A565",
"t. c #6BB964",
"y. c #75B967",
"u. c #7ABC73",
"i. c #77AC6B",
"p. c #4EC441",
"a. c #4DC843",
"s. c #53C444",
"d. c #55C34B",
"f. c #5BC44D",
"g. c #5CCA4D",
"h. c #55C947",
"j. c #5DC352",
"k. c #5DCB51",
"l. c #5DC359",
"z. c #58D14D",
"x. c #62CC4D",
"c. c #60D14C",
"v. c #63C554",
"b. c #63CA54",
"n. c #65C55B",
"m. c #6BC45D",
"M. c #6ACB5B",
"N. c #68CB58",
"B. c #72CB5D",
"V. c #75C65E",
"C. c #6CD25B",
"Z. c #69D356",
"A. c #71D85C",
"S. c #6EC463",
"D. c #6CCB62",
"F. c #68C565",
"G. c #72C464",
"H. c #74CB63",
"J. c #79CA65",
"K. c #76C56A",
"L. c #74CD6B",
"P. c #7ACC6C",
"I. c #79C46A",
"U. c #74D265",
"Y. c #75D46A",
"T. c #7BD46D",
"R. c #7CDB6C",
"E. c #77D865",
"W. c #7ACA73",
"Q. c #7DD373",
"!. c #7DDB72",
"~. c #7FD57A",
"^. c #6ED361",
"/. c #8AB97E",
"(. c #80D76D",
"). c #84CD7B",
"_. c #8ACC7D",
"`. c #85C979",
"'. c #81D474",
"]. c #82DC73",
"[. c #85D37A",
"{. c #8AD47D",
"}. c #8ADB7C",
"|. c #86DC79",
" X c #80CD67",
".X c #86E176",
"XX c #8BBA85",
"oX c #94B98C",
"OX c #8CA98B",
"+X c #A1BE9A",
"@X c #A6BCA5",
"#X c #8BC484",
"$X c #8DCC82",
"%X c #88C886",
"&X c #94CD8C",
"*X c #95CB88",
"=X c #8DD483",
"-X c #8CDA83",
";X c #8ED48A",
":X c #89D987",
">X c #91D486",
",X c #92DB85",
"<X c #93D48B",
"1X c #94DA8A",
"2X c #9BDC8D",
"3X c #99D58C",
"4X c #9ACD93",
"5X c #97CA96",
"6X c #9BD393",
"7X c #9DDB93",
"8X c #9AD597",
"9X c #8BCB92",
"0X c #A2D49B",
"qX c #A3DB9C",
"wX c #A3D897",
"eX c #A1C99B",
"rX c #9AE38C",
"tX c #94E387",
"yX c #9DE993",
"uX c #A3E595",
"iX c #A4E39B",
"pX c #ABE49E",
"aX c #AAEB9E",
"sX c #A4EA96",
"dX c #ACF09D",
"fX c #AAC7A7",
"gX c #ABDCA4",
"hX c #A9D9A3",
"jX c #B4DCAE",
"kX c #B2D5AB",
"lX c #B5C8B6",
"zX c #BAD8B5",
"xX c #AFC8AD",
"cX c #ADE4A3",
"vX c #ADECA4",
"bX c #ABE6A5",
"nX c #B3E4AB",
"mX c #B2E8A9",
"MX c #ACF1A3",
"NX c #BBE6B5",
"BX c #BBF3B7",
"VX c #B1F8A9",
"CX c #9BCFA1",
"ZX c #C2DBBD",
"AX c #C2E4BD",
"SX c #C1F4BB",
"DX c #BFD6C2",
"FX c #C7DAC5",
"GX c #C2CCC3",
"HX c #C9E3C7",
"JX c #D1E2D2",
/* pixels */
"r r z 2 e d %X8X;X<X5X9Xl y e e e z S L L +. .X.).*X*X8X9X9XDXHXZXZXpXpX[.(.A.R.T.J.H.B.H.C.C.Z.C C l W h ] %XrX&X&X5X4X",
"r 3 z 5 t d ~.9X1X<X5X%Xg 5 4 4 7 q A L D +.| *._.$X*X6X9XoXzXzXZXZXjXaX{.}..X.X].(.J.J.J.A.B.C.l l N W Y ~ %X;X6X&X8X4X",
"r e 6 5 6 s ;X8X{.$X4X&Xf t y y 6 t S L F |  .X._.$X#X5X9XCXzXFXZXZXjXpX_.'.E.J.(.T.J.J.J.H.V.V.^ Q N Y Y Y 7X7X&X&X&X&X",
"e e d z q s :X%X{.>X3X{.9 5 4 4 6 t S S A +.F X._._.*X%X9X5XkXzXZXZXAXmX{.}..X].].T.L.J.H.H.G.V.m Q Y Q Y Y %X).<X<X&X<X",
"5 6 8 5 9 g }.1X{.{.{.{.g w q e 4 6 Z S H H | *.[.$X;X9X9XCXjXHXZXZXAXpX{.(.].E.].(.J.J.J.P.J.I.~ R R Y Y ( 7X7X;X;X1X;X",
"z d d s d F I.{.}.}._.J.Z d q 6 z z G A S H D $.P.W.).%X9X8X0XjXjXkXgX7X,X].(.R.R.E.B.m.V.V.G.I.' ] ( ` ( [ u.W.$X).).[.",
"+.d.j.j.f.$.g a a a k C H J a.a.I b K A S S S  .H.K.K.t.u.i.] { ` } ] ) I.H.M.A.A.Z.x.w.7.7.7.q.0XgXgXnXcX<X] j j h h h ",
"j.d.l.-.b.7.u u u 9 9 u f.b.l.a.z.p.J b Z H S L n.9.F.F.W.y.R m R E M N P.E.A.A.A.Z.x.L -.w.q.q.nXAXjXBXmXcXm > i i u 9 ",
"2.l.d.l.2.2.s u d 9 9 s 2.l.l.2.d.d.G x F L S L v.M.F.D.D.t.Q Q Q Q k V H.E.A.A.A.Z.U -.=.1.<.t.jXAXzXjXNX7Xm > a u u u ",
"2.l.2.2.2.2.0 8 9 s 5 0 2.2.8.F.l.2.+.F F L V L n.D.n.F.S.F.C C k V C g U.U.N.E.A.B.x.=.7.7.8.y.jXFXzXNXBXiXQ i i 9 9 0 ",
"l.l.2.l.l.2.s 5 s d 8 u t.W.r.y.t.t.o.O.O.../ O.F.D.l.F.m.0.l k l n k k }.'. X XE.V.7.7.0.q.r.i.zXFXZXjXNX7Xj i 9 9 9 0 ",
"t.9.2.l.9.2.d 5 s d 5 f ,.r.r.r.r.[ ] E ( _ _ ) S.L.F.L.K.S.C l g l k ^ t.u.y.u.y.y.q.5.r.4.r.i.ZXFXFXNXNX7XW f 9 9 0 w ",
"~.:X!.|.:X~.J K |  .+.l ; * # # # * # # # # # = W.:X~.|.[.`. .V n  .~ Y = * * # * * # # # # # * ZXFXHXNXBXmX,. .$.J J K ",
":X:XQ.[.:X'.J G +.| -.X.# @ X   X   X X X X X * %X;X:X;X>X{.X.^ ^ ^ ( { @ X     X X X X X X X $ GXJXHXNXSXvX<.&.H J K K ",
"=X-X|.}.,X{.@.J &. .$...@ X X     o X X X   X # XX9X;X;X*X$X..W ..~ ` } X X + . .   .       . & FXJXFXHXBXvX,.+.+.J J K ",
"=X=X'.}.=X[.J K | &.+...#     O o o o X       $ 9X9X;X>X*X$X..^ ^ ] ] , @ . . o o o . . . o O & GXJXHXNXBXMX:.&.+.J K K ",
":X{.-X}.}.Q.J G K K H O.#   o O o o X X X   X # #X=X=X=X&X_./ C ! ~ ) ` @ X X       . . o   O % ZXHXAXSXBXMXt.| $.H H K ",
"Q.Q.~.Q.'.Y.s.K K J %...* X   O o o   X X     # `.[.'.[.=X_.O.L ! ! ,.R # X X       . .     % + zXNXmXbXMXyX2.&.&.J J J ",
"D.n.G.m.H.M.%.P I U =.o.*   o O % o     O o   @ i.M.N.b.m.m.F A  .;.,.` @           .   X X   @ /._.`.'.W.Y.$.@.@.P P P ",
"k.k.v.j.v.k.U U U s.j.;.* X o % o o   o % O o @ 4.b.g.g.v.n.S S |  .,.` @     o o   . .   X X @ i.y.y.S.M.^.P U a.I I I ",
"f.g.b.v.b.x.@.d.U s.7.5.* X o o         O O . # 4.N.z.c.v.m. .O.Z G +.Q *   o o o % O o   X X #  X XV.V.B.C.U h.I I I I ",
"g.x.b.g.b.g.J d.s.=.<.;.# X       X     O O   @ r.v.g.g.v.m. .L G b +.^ * X   o o O o o       @ i. X Xx.Z.C.J d.p.p.a.I ",
"g.x.b.f.v.b.J d.d.=.7.>.* @ X X X       O .   # y.m.b.k.b.n. .D G G +.Q * X X   o o o o X     # q. XV.V.H.U.-.k.=.d.d.d.",
"b.v.v.f.N.N.=.f.=.j.9.5.= # @ # # # @ @ $ @ # * e.t.8.8.8.t.Q ! F V / E = # $ $ X $ @ X @ @ @ * y.B.B.B.M.U.&.1.1.1.1.2.",
"*.w.w.*.w.*.E.E.E.Y.T.W.;.3.r.] ' 4./._.`.#XXXOX* # @ @ # # # # # * @ - @XlXxXlXfXCX} : , : , m 0.x.v.v.v.D.U.Q.Q.T.Q.W.",
"6.6.6.:.5.<.'.(.Q.!.Q.~.4.8.r.4.q.7.'.}.{.,X3X*X@ X     X         X   + lXFXlXkXjX8XR j ~ m T M w.x.g.b.b.M.Y.R.T.T.Q.'.",
"5.:.5.o.8.:.'.'.Q.Q.Q.~.<.<.:.:.;...>X>X=X>X>XXX@ + o     X X     o . & lXDXlXNXqXiXW h Q j M C f.h.z.h.z.k.^.Y.T.(.'.'.",
"5.5.5.5.8.5.'.'.[.).'.Q.<.<.<.:.y.4.7X$X).[.<XoX+ O O o       X   . . + lXDXkXjXbXiXm a M j M C g.z.c.z.k.Z.E.!.E.T.'.T.",
"8.8.8.:.8.8.).{.W.).).[.6.7.7.7.O.o.>X3X<X1X6XoX+ O O o     o   @     $ lXHXZXkXnX8XN h B _ B a f.s.g.f.j.N.H.'.Q.'.W.'.",
":.:.:.,.:.:.).$X$X$X$X{.:.o.o.o.w.q.u.XX#X#XXXOXo O O o     o o   X   & +XxXlXxXkXXX>.h : M M C m.N.V.V.S.L.W.[.{.)._.[.",
"^ F  .V ! ..W.<X&X3X3X_.) B C C _ m - # @ # * #   o   X X X . o   X o X & + + X @ ; ,.F.V.N.Z.b.}.2X2XwX7X7X6X6X6X&X&X<X",
"k k C k C / ).2X3X3X6X_._ N C B Q R @     X X           X           . o o o   X X * t.D.N.x.x.Z.rXwXwXpXpXwX0X4X5X5X8X5X",
"l ^ l W B / $X3X*X*X3X_._ N C N Q E X                                     o       * q.C.N.N.Z.B.7XhXgXhXgXgX4X4X&X&X&X6X",
"W l W W Q _ >X3X3X,X3X>X/ B B Q T E @ X o             o o .               .       # q.M.b.b.N.m.7XhXhX8XhXgX8X8X8X6X6X<X",
"m N W W Y ( &X6X*X*X3X_._ m Q B Y E @ X o o           o o                 o       # q.C.N.N.C.G.iXhXgXcXbX8X8X*X&X&X&X&X",
"W ~ ~ ~ E ] 4X8XwX4XwX*X] ~ _ ~ ( ` @   o o         o o o             X . o       # 8.N.v.b.N.M.7X8XqX8XCX6XhX8X8X6X6X6X",
">.] >.] [ e.hXjXjXbXbXhXr.[ [ ' >.` @   o o             o .     .       o o     . @ :.v.=.-.x.6.) ] ] E ' 3.8XcXbXbXnXvX",
">.>.e.e.e.r.bXNXNXnXNXcXr.[ r.>.3.' #   o O                           X   o       @ ;.w.-.-.-.*.Q ~ ( T ( ] vXBXmXnXmXmX",
">.>.e.[ e.r.bXnXmXnXmXbXr.] ' ' >.' @   o % o                           . o       @ ;.w.-.=.=.*.! / ) ~ ) ( uXvXmXmXnXnX",
">.>.>.>.e.r.bXbXbXvXvXbXr.>.>.>.;.] @   % O       X X                   o o       @ ;.w.*.-.=.*.V B / B _ / aXMXvXvXvXmX",
";.;.;.;...r.yXVXMXaXVXMX,.) ,.,.o.' @   % O       @ X       X       X X   o       # ' w.7.=.w.w.F ! C ! h O.yXVXdXvXvXvX",
"..,...6.:.t.tXyXyXyXyXrX8.:.,.,.:.[ @   O o   X @ * @ @ # # $ @ @ @ @ $   o     o $ ] o.w.X.$.X.C V C O.V :.tXyXsXsXsXuX",
"|.Q.Q.Q.T.L.T.H.^.Y.L.Y.L.Q.T.Q.[.u.*   % O o @ OX#XoXoXoXoX+X+XfXfX5XOX& X       X M g g p g g 9.v.1.m.7.*.T.V.J.L.J.I.",
"|.].R.].!.T.C.v.N.M.l.n.!.!.!.!..XW.*   O o   @ oX6X3X4XeXeXhXkXfXkXjXeX$     X   X : 9 u i a i N.m.N.^.m.n.H.m.n.m.m.V.",
"T.T.T.R.R.R.Z.b.M.C.b.b.R.R.Y.!.].u.* X o o   @ /.$X$X$X#X*X0X0XfXeX4X5X@ X     X @ : a M g g g 1.v.v.M.b.v.M.N.N.Z.M.N.",
".X]..XR.(.E.Z.b.k.b.l.k.R.R.R.R.].I.*   O O X # _.>X{.{.$X$X3XwXqX0X0X5X# X X   . X : i a u a a N.M.b.N.v.f.v.x.x.b.x.x.",
"(. X(.A.(.R.b.M.Z.M.C.N.R.E.R.Y.].K.*   o .   # `.{.[.{.{.{.2X8XwX0XgX4X#   X     @ : a p a j p j.v.b.b.b.Z.Z.Z.c.x.x.c.",
"}.}.}. X].].v.N.N.k.M.M.!.~..X!.|.P.; @ $ @ # ; I.T.E.E.Q.!.-X:X>X=X1X_.= # # # @ * M g p u g g n.v.v.v.b.M.f.b.b.x.x.x.",
"uXuXpXpXuXrX5.*.*.*.*.6.rXsXwXsXsXsXi. Xe.q.q.w.0 5 w 4 w 5 n +.D F S S 7.6.6.7.6.7.-.@.@.@.@.d.Y.L.Y.L.~.^.2.+.L *.-.L ",
"pXpXpXpXpXuXq.5.o.o.o.6.uXpXjXpXsXsXq. Xy.V.Z.x.2 3 < < 3 2 b v G G A G v.x.b.f.f.g.d.p.h.p.P s.Y.W.Q.L.~.L.2.&.*.*.*.*.",
"pXpXpXpXpXuX5.o.*.o.X.6.uXaXpXpXuX}. X Xt.N.v.d.2 1 1 1 3 2 c c x x x Z g.g.b.g.g.g.s.s.s.h.P s.~.Q.~.Q.~.Y.:.&.$.*.*.*.",
"pXpXpXpXpXuX5.o.<.*.X.6.uXaXpXpXsXsX/. XG.m.N.h.4 < 1 1 3 7 b c x x x x g.f.g.g.f.g.d.J p.P P %.Q.Q.~.W.Q.P.2.&.*.-.*.*.",
"pXcXaXbXdXuX4.o.&.&.X.8.uXvXcXbXuXrXy.G.S.m.M.k.7 2 < 1 3 3 b b b x x x g.g.g.f.f.g.s.J g.s.J f.P.W.'.P.Q.L.*.X.X.$.$.O.",
"iXyXuXiXuXrX6.<.*.<.*.<.rXsXiXiXdXsX0.y.t.n.l.k.8 1 < 1 3 1 c c c c c x g.g.g.g.v.x.%.J J s.J %.Q.).{.'.{.Q.7.*.*.*.-.*.",
"<X1X<X<X1X1X5.6.1.7.1.8.tX1X<X7X,X`.B N k k n s 7 2 1 1 3 1 z z t w t z p.g.k.f.v.s.L A H K K H -X,X1X,XtX}.0.7.=.7.w.w.",
";X=X;X=X=X-X6.F.1.1.1.1.-X-X=X<X}.{.N h f k f d 2 2 < 1 7 1 e 7 y 4 w t p.f.g.f.x.s.S Z A A x F tX2XrXrXrX}.0.7.7.7.w.w.",
"=X;X-X1X=X:X9.7.2.1.1.7.-X:X;X1X3X{.B M h k f d 5 2 1 1 < 3 6 6 6 e 6 q s.g.d.j.f.d.H Z S n b | ,XrX3XrXtX}.0.w.7.w.w.w.",
"=X1X;X1X=X}.9.7.1.1.j.1.|.-X;X1X}.{.B M h k f d 5 7 3 1 3 3 6 e 6 6 w q a.g.f.f.f.=.H F S G A | ,X2X3XtXrXtX0.7.7.w.w.w.",
";X-X=X;X=X-X0.7.1.1.1.7.-X-X=X1X}.[.B M h k g d 8 2 3 1 < 3 6 e e 6 6 y s.h.f.f.f.f.S A A S A L tXwX1XrXrX}.7.7.7.w.w.w.",
"-X;X-X-X-X-X9.7.=.1.j.7.|.-X;X<X,X[.C M h k k f 8 7 3 1 3 3 6 6 e 6 6 w s.f.f.f.w.=.S F S G A D ,X2X3XrXrX,Xq.7.7.w.w.w."
};
