/* XPM */
static char *portal1672242446[] = {
/* columns rows colors chars-per-pixel */
"60 60 249 2 ",
"   c #0F0004",
".  c #130402",
"X  c #13000B",
"o  c #180A04",
"O  c #1A0013",
"+  c #190016",
"@  c #1F1410",
"#  c #270007",
"$  c #370304",
"%  c #27150D",
"&  c #3B1B09",
"*  c #250814",
"=  c #2C1C12",
"-  c #281816",
";  c #311D16",
":  c #3B1D14",
">  c #331D1D",
",  c #381B1A",
"<  c #3C200B",
"1  c #39230B",
"2  c #2E211A",
"3  c #3D2414",
"4  c #35241D",
"5  c #3D251E",
"6  c #352B1D",
"7  c #3C291D",
"8  c #382614",
"9  c #37311C",
"0  c #3A1E25",
"q  c #280E23",
"w  c #2D2928",
"e  c #342623",
"r  c #3E2622",
"t  c #362A23",
"y  c #3C2923",
"u  c #36262B",
"i  c #3C252A",
"p  c #342A2B",
"a  c #3B2A2A",
"s  c #3D3027",
"d  c #3C2632",
"f  c #3B3233",
"g  c #441C03",
"h  c #4B1C01",
"j  c #431C0A",
"k  c #4A1707",
"l  c #531C02",
"z  c #581909",
"x  c #451E1C",
"c  c #4C1E1B",
"v  c #481B13",
"b  c #531C15",
"n  c #561A18",
"m  c #510C04",
"M  c #631B07",
"N  c #731809",
"B  c #651C18",
"V  c #781B18",
"C  c #482306",
"Z  c #542302",
"A  c #5B2301",
"S  c #592704",
"D  c #432515",
"F  c #43251C",
"G  c #4A221B",
"H  c #42291C",
"J  c #492718",
"K  c #542416",
"L  c #5C2315",
"P  c #5C231A",
"I  c #56281A",
"U  c #4B351E",
"Y  c #652704",
"T  c #77260A",
"R  c #66251A",
"E  c #78241B",
"W  c #743912",
"Q  c #471E23",
"!  c #541F22",
"~  c #461F31",
"^  c #7F1F20",
"/  c #422423",
"(  c #4A2324",
")  c #432924",
"_  c #4A2A22",
"`  c #43232B",
"'  c #422B2A",
"]  c #482B2B",
"[  c #5A2424",
"{  c #473227",
"}  c #452832",
"|  c #463B36",
" . c #583A2C",
".. c #662525",
"X. c #772724",
"o. c #6D3727",
"O. c #784205",
"+. c #4D423C",
"@. c #784F2D",
"#. c #7F6032",
"$. c #6D3B72",
"%. c #733B7A",
"&. c #67346D",
"*. c #61395E",
"=. c #454140",
"-. c #6D5A53",
";. c #7D6B68",
":. c #881B19",
">. c #9A1A15",
",. c #851A0A",
"<. c #A91D0A",
"1. c #B31C07",
"2. c #AC1C18",
"3. c #B51C15",
"4. c #BA1B1B",
"5. c #B51A1A",
"6. c #862706",
"7. c #873702",
"8. c #872918",
"9. c #99281A",
"0. c #923914",
"q. c #AE2303",
"w. c #AC2409",
"e. c #B32603",
"r. c #B72808",
"t. c #A9360A",
"y. c #BB340D",
"u. c #B53B0B",
"i. c #B73607",
"p. c #A4251C",
"a. c #AB251B",
"s. c #A92715",
"d. c #BC2C14",
"f. c #BD221B",
"g. c #B72717",
"h. c #AB3A14",
"j. c #AB391B",
"k. c #B13A1D",
"l. c #B93616",
"z. c #991D22",
"x. c #A91D22",
"c. c #B41C21",
"v. c #BB1922",
"b. c #862B26",
"n. c #9A2724",
"m. c #863726",
"M. c #983925",
"N. c #903233",
"B. c #A42726",
"V. c #B92724",
"C. c #AC3B26",
"Z. c #B13B24",
"A. c #BC3426",
"S. c #B53C31",
"D. c #C5350D",
"F. c #C12918",
"G. c #C43412",
"H. c #CA3415",
"J. c #C53718",
"K. c #C53924",
"L. c #C32921",
"P. c #C11F2A",
"I. c #984417",
"U. c #94561A",
"Y. c #8F490B",
"T. c #A8431B",
"R. c #B74318",
"E. c #AE530D",
"W. c #984427",
"Q. c #9A5D23",
"!. c #844433",
"~. c #8B542D",
"^. c #A84628",
"/. c #B74326",
"(. c #A94431",
"). c #97642F",
"_. c #AB6B33",
"`. c #9B6014",
"'. c #D35914",
"]. c #D96B1E",
"[. c #CB721B",
"{. c #D37618",
"}. c #F87E09",
"|. c #E87B18",
" X c #F57D16",
".X c #D16E28",
"XX c #CB7722",
"oX c #D37221",
"OX c #ED792D",
"+X c #85736C",
"@X c #D37655",
"#X c #EC7847",
"$X c #DA8318",
"%X c #E98A02",
"&X c #F98906",
"*X c #E99609",
"=X c #FE9304",
"-X c #FF9A02",
";X c #FF960C",
":X c #F6950A",
">X c #E98A17",
",X c #F78617",
"<X c #FF9412",
"1X c #FB9A16",
"2X c #EB9116",
"3X c #EDA210",
"4X c #D88522",
"5X c #D68B38",
"6X c #E98A28",
"7X c #F59825",
"8X c #F38537",
"9X c #E79C38",
"0X c #F18F2B",
"qX c #E8A03E",
"wX c #B08353",
"eX c #97877B",
"rX c #AF866A",
"tX c #CD914F",
"yX c #E59B44",
"uX c #F48E4F",
"iX c #D7A66D",
"pX c #E38A68",
"aX c #813B93",
"sX c #854792",
"dX c #954CAB",
"fX c #A469B2",
"gX c #A152BD",
"hX c #B36EC7",
"jX c #9B8981",
"kX c #A4928A",
"lX c #B5A59A",
"zX c #B7A89B",
"xX c #ABA29D",
"cX c #C7B6B4",
"vX c #D8A882",
"bX c #CFC2BB",
"nX c #CFBDC1",
"mX c #CAC3C1",
"MX c #D8D1C7",
"NX c #E7DACF",
"BX c #F8E9D9",
"VX c #FDF4DD",
"CX c #EBE2D7",
"ZX c #FBEFE3",
"AX c #FEF4E3",
"SX c #FFF5EB",
"DX c #FFFAEB",
"FX c #FFF8E4",
"GX c #FFFBF2",
/* pixels */
"r r r r r r / 7 r 4 y i ) i y e t t F F 7 7 F F ( r p y / G 5 7 r r r / r r r r r r 7 r r / r r r r r r r r 7 / r r r 7 ",
"r r r r r r r r / ' ) 4 ; > r a p s F D 6 r ) J / r p t / F 7 5 / r 7 r r r r r r / r r r r 7 r r / r r r r r r r r r / ",
"r r r 5 r r r r 4 4 r y r { y 4 e y ) 5 4 t , : / i p t / G F r 7 r / r r r r r r r r / r r 7 r r r 7 r r r r r r r H r ",
"r r / r r r r / ' r y 4 4 r y 4 4 y / _ { { ' ] / / p y / / 7 7 r r r r r r 7 / 7 r r r r r / r r r / r 7 r / r r r r r ",
"r r 5 r r r r y 4 y r { ' 4 t { s e , / e ; > i / i t y / / / r r r / 7 r / r r / r r r r r r r r r 7 / r r r r r r r r ",
"/ / r r 7 / y y ' y 4 y { y y y y 4 r ' s p i ` i i y y ` / r r r r r r r 7 r r r r r / r / r r / r r r r / r r r r r r ",
"r r r r r r 5 y y y = % % ; 4 = = 4 r 0 4 y a r i / 5 r / ` i 7 r r r r r r r r r r r 7 r r / r r r r r r r r r 7 / r r ",
"7 / r r r r r 7 > -.kXkXjXjXjXeXkXeX;.} 4 t a 0 / F D H ` i r r r r 7 / r r r r r r r r r 7 r r r r r r r r / 7 r r r r ",
"/ / r / r r r ) 2 zXDXDXSXGXSXDXSXGXnX> { 8 ) 4 ) v C D , r a i y r r r r r / r r / r r / 7 r r r r r r r r r r r / r r ",
"r r / y 5 r y y = lXSXAXZXAXAXAXZXGXnX- H 1 H H &  .C C ] a u 2 r r r r r 5 7 r r r r 7 r r r r 7 / r r r / r r r 7 r r ",
"r r ) r r / 7 ) = zXDXAXZXFXBXVXBXSXmX2 U C 9 & K Z g & / p p p y r r r r r r r r r r / r r r r / 7 r r r 7 / r r 7 r r ",
") r / r 7 r y s = zXSXSXAXDXAXAXFXDXbX2 C 1 @.rXW g ).@X_ d f | y r r / r / r r r r r r r r r / r r r r r r r r r r / r ",
"/ / r r r r y ) % lXDXAXVXAXVXAXVXVXmX; 1 C ).vX~.Y tXiX{ f +.f t i r r r / 7 r 7 r r r r r r r r r / r r r r r r r r r ",
"/ r / / r r y y = lXDXAXZXFXVXVXBXFXmX= #.wX).Z _._.5XtXU e =.f y r r 5 r r r r / r r r / r 7 r r r r r r r r r r / r r ",
"/ / ) r 7 r r 7 = zXDXFXAXDXAXFXVXDXmXo #.iX).$ _.yXyXtX+.w w w y r r 7 r r r / r r r r r r r r r r r r 7 r r 7 r r r r ",
") i r r r r r s = lXDXFXAXDXFXDXVXDXMX% C S Z A A Y l Y < f w w y r / / r r r r r / 7 r r r r r H F / 7 / r r / r / r r ",
"/ r i / r r r r % lXNXBXFXCXMXDXZXCXxXt : D  .k C C C C F ` d ` i / 5 / / / / 7 / / r r r r / F G D H D 5 F / 5 / / i i ",
"i r / r i r r r ' 4 4 bXGX+.s AXMX| 2 6  .0 & , H F F H / ` ~ } / / / / / / r r r r r / / / / H G F D 7 7 7 5 _ x x c G ",
"r / / r r r y 4 r ; 4 bXZX| +.CXbX2 t t , ` Q ] / 7 7 7 7 4 r / F / ) ) r r r y r r r H / r r r i i i r 7 8 8 8 J R E V ",
"i r i / r r y r r ; ; bXDX| - DXBX{ ' y 0 } 0 i r y y 6 6 6 8 7 5 r r / r / / / r / r r 5 / r i i u i y 7 7 D h !.W.C.Z.",
"/ r i / r r r y r -.+XeXlXeX;.lXeX8 = F ] } i 0 t s t t 9 9 9 9 y r r 4 i ) r r r r r r r 7 r y u p u e _ o.b.,.k.g.l.y.",
"r / / r r r r y % cXGX-.% BXGXt 1 9 { / i ` } d d w t t 6 9 9 y 7 y y r r / r r / r r r r r y y u a / c o.N.S.d.H.H.J.D.",
"i / r i r i r r % +XkX+.r +XeX{ 9 H 3 5 ` 0 0 i f e - @ - - - - % = y ) y r r 5 r r r r r t r r / x B V n.V.A.J.y.l.i.i.",
"/ r r r r r y r / 4 % 4 y = > 7 8 9 7 5 r } ` ` a > o     X O X   o 4 y y 4 r r 7 r / r r r y H x b E B.v.5.1.1.l.u.l.R.",
"r r / r r r r r 4 r 7 7 y r y y y y r r r / H 7 r ' * X *.&.%.$.  o t 6 y y ) y r / r r y y y F J z V n.V.4.3.1.w.g.h.s.",
"i r i r r r r r y r r r y y y r y y r r F H H H 4 y # O sXfXhXfXX o y 7 r r ) r / r / r i r r 5 5 K R b.B.a.2.5.2.<.<.s.",
"r r ) r r r r r r r r 7 7 / r r i e r 5 F 5 3 D F _ * + %.sXgXdXX . y y y r ) / r F r r 5 y 5 e 4 7 / I R V z.V.v.L.v.c.",
"r r i r r r / r 7 / r r r 7 7 r i i i 5 5 D 3 D : 4 * * %.aXgXsXX . t 4 y r ) / r / F / r 5 r y a t t 4 : b ^ N.z.x.c.v.",
"r r ) a r r r r / i / / r / / r r a / ) / H H H { 4 O X $.sXdX&.X . t y r / / / / / / / / / r r e a a y a ) _ [ B V z.x.",
"r r i r a / r r r r 5 5 7 r 5 r / F / / F 7 6 7 6 e * + *.%.sX&.. . y 7 r / / 5 Q / / F / 5 r r i / / i a t t 6 Q B b.N.",
"r r r r r r r r 5 5 5 r / 5 5 H F F F / F / y r 4 4 X X + + q +   o y 5 r F / Q F / Q / i / i / J _ 5 5 > r i / Q Q ! ! ",
"i ) r r r r r / / _ G I I L L R L L L L I L I I I I m * $ $ $ $ $ & I I I P R L B B R n P P P P M M I H ) ' / ` ` ~ / Q ",
"i i r y y 7 5 D j o.~.W.C.C.Z.k.h.j.T.T.T.j.k.^.k.l.k.k.Z.Z.Z.C.j.T.T.T.T.k.k.k.k.j.Z.S.S.9.9.p.s.6.L { : ] / 5 r i ` ~ ",
"/ r y y y 7 7 J K X.m.M.C.j.d.d.d.G.y.y.y.l.G.G.D.D.H.H.D.y.i.i.i.u.'.y.y.G.G.D.G.J.F.d.g.V.f.w.1.'.o.C : _ 5 / e u } ~ ",
"/ r r 7 y 7 r F J v Y b.M.9.9.s.3.r.f.d.J.H.H.H.H.D.D.D.i.i.R.u.D.H.d.F.G.G.l.d.<.w.<.<.2.a.2.1.F.#X).C _ _ : r y i ~ ~ ",
"H F 5 r r 7 r F J v v B E E N 9.>.2.g.V.A.A.V.d.d.d.d.r.i.t.E.l.r.F.r.d.d.g.g.s.s.p.a.p.p.2.p./.'.uX_.& J G 3 F 4 i / ~ ",
"F F F 7 r r y i ) / x c I n n M :.n.n.B.B.p.p.p.<.w.F.J.J.J.y.y.1.s.3.s.a.a.B.p.B.n.n.M.9.N 8.#XOXOX^.Z Z j J H 7 r ` ~ ",
"F 7 7 / r y r r r / ` 5 , / Q c B R ..X.V V 8.p.a.a.g.f.F.l.d.d.s.a.p.9.>.:.:.:.:.V V E R m X.@XuX8X_.U.W D J 3 7 r i ~ ",
"7 3 H 7 r r r i 0 e i i i y ` ' x G c c b P X.b.n.B.2.x.3.2.3.5.p.n.n.E B n n c Q _ c K P l o.@XOX0X5XtX~.D J < 3 H / ~ ",
"7 7 7 r r r a i i i a a a e e y y r 4 5 D G R ..V :.z.n.B.x.>.,.V E R R n x ( ` 5 ' 5 3 J J K ~.E.>X4XyX~.g D _ H 7 / } ",
"y y y i / a ) a r r r y y t 6 y r y 7 r F F G b n B X.N.N.b.V z b J G F ( / ` i i i r 4 7 7 8 C 7.6X>XqX).h D H D F ` ~ ",
"y y y y ) r / r r r / 7 7 7 7 7 7 r r 7 7 / / G Q ( [ ..! ! ! c G F F F r i i i i i e y 7 7 8 C 7.>X>X9XQ.g F H 3 F i i ",
"y y a y i r r F 5 r 7 7 D 7 8 7 F F F / 7 7 r 5 Q ( Q 0 ~ 0 i ) F F / r i p p p p p i e / _ F h W 2X*X9XQ.g F 7 D H ` d ",
"y i r r r r r r F F F F H H D H F F r 5 r y y y r i 0 r r i p t / / / / i i p a p e i r / ( x l Y.0X*X7XQ.g H / D 3 i d ",
"i i r r i 5 r r / 7 5 5 5 F H F r 5 y 4 t 6 t y r / / ' ) i a y i r r / / / ` / / / r Q / ` / g O.9X*X7XQ.g ) r D H r a ",
"r 5 / 5 5 r 5 7 r r r r 5 / r / r r y y y t y r i / / / / i i r r i i r / / / / Q Q / r / / i < O.9X:X2XU.j ' e 7 D i d ",
"/ 5 / / r r 4 y y y i y r i i / / / r r y y r r / / / / F F H r y r r r F r 7 / / 5 5 y y y e < O.9X*X>XU.& ' i D F ` d ",
"b b b c c F / r i y a i a r i i ` ` / y i i i / F / ( G / F r 5 i i / r r r / F 5 r r e i a p < O.9X:X>XU.j } u 5 F i d ",
"N T N B E P n ( / Q i a a 4 t y i r i d i i 0 ] / ( ( / / / i i i / / ` / / / / / / i i i p u : O.yX*X3XU.g ' i / ( ` ~ ",
"Z./.^.(.(.X.M z b G x / ) ) y r a i i a a i i ` / F F G / / i y i / ` / ` / / / r ) / i p y t : 0.yX3X3X`.C ( ` G J Q Q ",
"t.s.t.j.t.0.6.T T W R K v x ( / / / r 5 r y r 5 F F F F 5 7 r y y y 4 y t 7 y 4 7 t y 6 6 y t < W 9X*X3X`.m b v R Y R W ",
"J.'.y.u.R.R.T.^.I.W.W.T z z n n G F H 7 7 r 7 7 H 7 D 7 7 5 7 y y 7 r 7 7 r 7 7 7 7 7 7 4 H 7 C 7.6X*X*XE.M z M W.I.^.W.",
"r.r.1.D.D.i.i.i.u./.^.8.8.b.E B v G F F 7 7 7 6 7 7 5 r 4 7 6 y r / / i r r y r 5 7 / F G G G k 7.6X%X1X[.N 6.6.t.t.h.l.",
"1.1.1.r.H.H.D.J.l.l.l.j.C./.M.T L G G F ) 6 6 t y i r y r y i y i / / a r y a y i i / F F F c l 7.6X%X1X{.t./.Z.J.G.l.l.",
"F.4.5.3.f.v.f.F.L.L.A.l.J./.u.6.X.[ v F ) y e a u u d i a i i y y a p p f w w p p p i i r / F l 7.0X&X7X].t./.A.K.F.F.3.",
"5.3.4.v.P.v.4.4.4.L.L.J.y.y.i.T.!.[ v G _ r 4 a u i d } i i i i y i p p w p p p u p y / F G c h 7.8X,X7X].t.K.V.K.F.4.5.",
"5.2.c.c.c.c.5.4.4.3.1.r.e.i.i.R.W.@...C C 3 7 7 / i } i / 5 F F F J x F / ' / i / ( Q v K o.!.8.E.6X0X0X].<.r.g.w.5.5.c.",
"w.w.w.e.e.w.e.e.1.e.e.e.i.e.i.t.t.I.7.Y A Z Z C Z Z z z A A A A A A l A A S l Z l A l M Y I.I.E.'.{.,X,X'.q.q.q.q.e.e.w.",
" X,X,X X}.}.}.}.}.&X&X X X X X|. X,X,X|.>X$X{.oX.X.X.X.XoXoXoX>X$X$X$X$X4XXXXXXX[.[.{.{.|.,X,X&X&X:X=X=X&X}.}.,X X,X X,X",
"<X;X=X-X-X-X-X-X-X-X=X;X<X,X X}.}.&X&X:X;X;X<X,X,X,XOX,X,X,X<X1X1X;X1X1X7X2X2X2X>X,X,X<X<X;X:X=X-X&X%X%X&X;X&X1X;X;X;X<X"
};
