/* XPM */
static char *_4233_e30961f272979cee28101baf060b8ddd3f6be05049036dc66fd8ffe402233c41[] = {
/* columns rows colors chars-per-pixel */
"50 50 247 2 ",
"   c #020202",
".  c #0B0300",
"X  c #0D0C0B",
"o  c #060B06",
"O  c #130905",
"+  c #031505",
"@  c #16120D",
"#  c #0B131B",
"$  c #13191B",
"%  c #171717",
"&  c #090B14",
"*  c #2C0301",
"=  c #3D0102",
"-  c #390502",
";  c #251A17",
":  c #2E1910",
">  c #1D221E",
",  c #0B2B02",
"<  c #34231A",
"1  c #28261E",
"2  c #1A1B23",
"3  c #261F21",
"4  c #1A2426",
"5  c #272526",
"6  c #342928",
"7  c #37332D",
"8  c #393637",
"9  c #2F3336",
"0  c #430102",
"q  c #4B0201",
"w  c #4F020A",
"e  c #5B0103",
"r  c #560306",
"t  c #551419",
"y  c #4D1312",
"u  c #670203",
"i  c #7B080D",
"p  c #770407",
"a  c #7D0811",
"s  c #6B1312",
"d  c #672808",
"f  c #7C280A",
"g  c #4C1A23",
"h  c #4A2725",
"j  c #443528",
"k  c #582B34",
"l  c #4A3B38",
"z  c #543031",
"x  c #692723",
"c  c #015704",
"v  c #114E0D",
"b  c #006406",
"n  c #314235",
"m  c #39511D",
"M  c #57463A",
"N  c #504D31",
"B  c #644C39",
"V  c #3C3D42",
"C  c #273744",
"Z  c #413E44",
"A  c #513D47",
"S  c #3C4446",
"D  c #394654",
"F  c #324B51",
"G  c #484747",
"H  c #554B48",
"J  c #49514A",
"K  c #56554A",
"L  c #484C55",
"P  c #564D57",
"I  c #545253",
"U  c #56555B",
"Y  c #4C5353",
"T  c #655A55",
"R  c #775D54",
"E  c #6C5348",
"W  c #5D6059",
"Q  c #62645F",
"!  c #7D6351",
"~  c #4A5964",
"^  c #5A5B65",
"/  c #615E65",
"(  c #685873",
")  c #576365",
"_  c #576C76",
"`  c #58727A",
"'  c #5E756F",
"]  c #686966",
"[  c #726A6A",
"{  c #6A6B71",
"}  c #697878",
"|  c #787778",
" . c #75726D",
".. c #8C0B0D",
"X. c #87070B",
"o. c #930C0C",
"O. c #94060A",
"+. c #9A110E",
"@. c #8C0B12",
"#. c #830A15",
"$. c #930D13",
"%. c #9A0D13",
"&. c #990917",
"*. c #8B1213",
"=. c #8E1618",
"-. c #941115",
";. c #9C121A",
":. c #961318",
">. c #8A130D",
",. c #A90F13",
"<. c #B20F13",
"1. c #A91418",
"2. c #B71519",
"3. c #AE0D0D",
"4. c #8F2F09",
"5. c #BA3E02",
"6. c #BD1825",
"7. c #A91420",
"8. c #B22A38",
"9. c #C8171C",
"0. c #D3181B",
"q. c #C61924",
"w. c #D81B25",
"e. c #E71C25",
"r. c #E22122",
"t. c #CF242D",
"y. c #FF6B15",
"u. c #B94655",
"i. c #876D59",
"p. c #86705D",
"a. c #86674B",
"s. c #887263",
"d. c #977E6C",
"f. c #887776",
"g. c #977979",
"h. c #019201",
"j. c #1D8014",
"k. c #08AF04",
"l. c #4D8D32",
"z. c #2BE134",
"x. c #7F827C",
"c. c #67E871",
"v. c #5D7581",
"b. c #687886",
"n. c #7C7D85",
"m. c #747A84",
"M. c #897F87",
"N. c #7B8688",
"B. c #7B8394",
"V. c #7F92A0",
"C. c #838A8B",
"Z. c #898987",
"A. c #878C97",
"S. c #86949A",
"D. c #989A99",
"F. c #958D94",
"G. c #AB8E91",
"H. c #B49394",
"J. c #92A19F",
"K. c #8C95A8",
"L. c #939AA9",
"P. c #8B8CA8",
"I. c #BD99A6",
"U. c #A69DA2",
"Y. c #9AA5B5",
"T. c #9DA3A1",
"R. c #ACACAB",
"E. c #A5A8A9",
"W. c #A4A8B8",
"Q. c #ABB2BC",
"!. c #B6B9B9",
"~. c #B2AEAB",
"^. c #A7A89A",
"/. c #C6A4A5",
"(. c #D8ACB2",
"). c #DBB9BB",
"_. c #CABBBD",
"`. c #E2B8BC",
"'. c #C29AB2",
"]. c #AEB5C5",
"[. c #BCBCC6",
"{. c #A3AAC2",
"}. c #9CADC9",
"|. c #C2BEC5",
" X c #D0B9C1",
".X c #F0BBC3",
"XX c #BCC5C7",
"oX c #BDCBDC",
"OX c #BAC6D8",
"+X c #BDD0DF",
"@X c #BECCE3",
"#X c #BED1E1",
"$X c #CBCBCC",
"%X c #C2C5C6",
"&X c #D6C9C8",
"*X c #C2CBDD",
"=X c #C7C9D7",
"-X c #C7D3DA",
";X c #D2D2D3",
":X c #D8DADC",
">X c #D8CECC",
",X c #E7C6C8",
"<X c #E9DADA",
"1X c #F0CED4",
"2X c #DCE1DD",
"3X c #C5CDE2",
"4X c #C6CDE7",
"5X c #CBD5E5",
"6X c #CDDAE6",
"7X c #CCD5EB",
"8X c #C7D8E7",
"9X c #D4DDEC",
"0X c #D6D8E6",
"qX c #C9DAF4",
"wX c #D2DCF3",
"eX c #DCDBF6",
"rX c #E2DEE3",
"tX c #E5DBFE",
"yX c #D9E4EB",
"uX c #DBE3F3",
"iX c #D9E6F8",
"pX c #D3E6F0",
"aX c #E3E3E3",
"sX c #ECECEC",
"dX c #E5E7EA",
"fX c #FBE5E6",
"gX c #FAE7E8",
"hX c #F3F2EF",
"jX c #E3EBF5",
"kX c #E4ECFB",
"lX c #EAEDFB",
"zX c #E5E9F2",
"xX c #F7E9F3",
"cX c #EBF4F5",
"vX c #E5F3FA",
"bX c #EDF4FC",
"nX c #EDFAFD",
"mX c #E9F8F7",
"MX c #F4F5F5",
"NX c #FCFCF5",
"BX c #F3F5FD",
"VX c #FBF5FB",
"CX c #F3FBFE",
"ZX c #FEFEFE",
"AX c #F7F8F2",
"SX c #ECF0EF",
"DX c #F3E0D9",
/* pixels */
"ZXZXZXZXZXZXZXZXZXZXNXZXcXaXdXcX^.  O O . . O 0XsXaXsXZXZXZXZXZXZXZXZXZXZXZXZXZXZXZXZXZXZXZXZXZXZXZX",
"ZXZXZXZXZXZXZXZXCXZXZXZXF.O ; ; t q.6.7.2.&.@ 3 5 ; $ $XZXZXZXZXZXZXZXZXZXZXNXZXZXZXZXZXZXZXZXZXZXZX",
"ZXZXZXZXZXZXZXZXZXZXZXx.q 2.<.3.2.6.%.#.O 6 &X&X&X&X&X7 %XZXZXZXZXZXZXZXZXZXZXZXZXZXZXZXZXZXZXZXZXZX",
"ZXZXZXZXZXZXZXZXZXCXN.w 0.9.w.2.;.i . 6 &X&XgXfXgXfX,XI.6 XXCXZXZXZXZXZXZXZXZXZXZXZXZXZXZXZXZXZXZXZX",
"ZXZXZXZXZXZXZXZXZXZX' e r.1.&.%.u 7 &X&XfXfX<X).).`.(.,X; !.ZXNXZXZXZXZXZXZXZXZXZXZXZXZXZXZXZXZXZXZX",
"ZXZXZXZXZXZXZXZXZXN.t 9.1...1.u l >XgXgX<X).,X(.6 ; 5 %   3 3 |.ZXZXZXZXZXZXZXZXZXZXZXZXZXZXZXZXZXZX",
"ZXZXZXZXZXZXZXZXZX) e w.1.1.e 8 >XfX1X).`./.6 5 P.L.K.L.Y.K.Y.D !.ZXMXZXZXZXZXZXZXZXZXZXZXZXZXZXZXZX",
"ZXZXZXZXZXZXZXMXZX] e q.;.r M &XfX<X X).'.l A.K.kXCXbXBXbXlXBXQ.8 !.ZXZXZXZXZXZXZXZXZXZXZXZXZXZXZXZX",
"ZXZXZXZXZXZXZXZXZX] q 6.%.0 Y VX,X)._./.Z K.vXMXnXBXBXbXbXcXZXZX].L Q.ZXBXZXZXZXZXZXZXZXZXZXZXZXZXZX",
"ZXZXZXZXZXZXZXZXCX] r w.u A _.fX1X`./.l K.bXnXbXbXbXvXbXmXNX| 9 4XZ | ZXhXZXZXZXZXZXZXZXZXZXZXZXZXZX",
"ZXZXZXZXZXZXZXVXZX` r 0.* ) NX1X,XH.l P.vXbXmXZXZXvXmXlXnXn.| j.v n.] E.ZXCXCXNXZXZXZXCXVXZXZXZXZXZX",
"ZXZXZXZXZXZXZXZXZX) r w.0 I DX1XH.P S.BXbXCXCXW ( bXVXbXZX9 l.z.+ P.U [ ZXZXZXZXZXZXZXZXZXZXZXZXZXZX",
"ZXZXZXZXZXZXZXZXZX%XB #.0 A `.1Xf.2 iXlXZXaX| } b Q uXZXC.& h.k., P.~ | NXNXZXZXZXZXZXZXZXZXZXZXZXZX",
"ZXZXZXZXZXZXZXZXNXZX' - q J 1XG.T A.jXbXmX:XX c.k.+ ;XT.d f v c   K.^ [ ZXZXCXZXZXZXZXZXZXZXZXZXZXZX",
"ZXZXZXZXZXZXZXZXNXZX!.z 0 h I.f.2 bXBXbXCX0X+ k.h.  :XX 5.y.4.f 4.a.2 n.ZXNXZXZXZXZXZXMX| U.ZXZXNXZX",
"ZXZXZXZXZXZXZXZXZXZXZXXXz r j [ b.wXBXbXnXpX[ c c ] yXS.y d d 4.4.M & Z.NXZXZXMXZXsX| | % o AXZXZXZX",
"ZXZXZXZXZXZXZXZXZXZXAXZXK.= p C iX3XkXCXlXCXVX/ / BXCXZX| D D D C OX~ [ ZXbXAXZXcX .< j K | NXZXZXZX",
"ZXZXZXZXZXZXZXZXZXZXMXZXB.. * V wXOX3XjXbXBXbXZXBXzXpX9X6XiXiX9XeX].U E.ZXMXNXcX] : E M { ZXZXZXZXZX",
"ZXZXZXZXZXZXZXZXNXZXCX<X| G l P {.6XOX*XkXjXjXuX*X*X@XqX#XI.[.@XiX9 Z.ZXNXZXcXW @ H G N.ZXcXZXZXZXZX",
"ZXZXZXZXZXZXZXZXZXZXZX] K ZXxXf.# W.6X*XoXoX*XoX4X3XoX'.I.u.I.qX{.Y | E.rXBX] h E N oX!._.NXZXCXZXZX",
"ZXZXZXZXZXZXZXZXCXMXZX[ I xX1Xg.  Y Y.wXqX4X@XoX4X@X=Xu.8.%XiX].Z L.B.& Z. .z s.z j O @ 8 >XZXZXZXZX",
"ZXZXZXZXZXZXZXZXZXZXZXZ.H G.H.R  .:XV L.Y.4X8X7X8X8XqX#XqX}.Y.S A.iX5XkX} 7 p.j o j B p.N % ZXZXZXZX",
"ZXZXZXZXdX;X%XMXZXZXNXZXT.% 5 ] ZXZXR.$ C W.Y.W.Y.Y.W.W.W.S X Y.wXuXVX9XpXB.6 j x.$X$ 5 2 G ZXNXZXZX",
"ZXZXZXZX8 X X F.ZXZXZXNXZXZXNXZXZXT.V yX].5 5 2 4 2 2 2 % Y.wXkXCXcXnXnXbXbXm.I MXZXZXZXZXZXZXZXZXZX",
"ZXZXZXZXJ H f.< Z.cXSXZXZXZXZXNXD.J CXBXjX=X4X3XoX5X*X*X#XkXpX:XvXCXcXBXcXBXvXm.L MXZXZXZXZXZXZXZXZX",
"ZXZXZXZXZXI . T l   Z.MXsXZXZXD.Y CXMXbXnXnXbXmXBXBXBXbXbXbXH   U.CXnXbXbXbXiX7X| G ZXZXVXZXZXZXZXZX",
"ZXZXZXZXNXhXNXU l d.M o  .ZXN.S lXjXBXCXvXbXBXBXbXBXbXvXZXS p w.- J.CXBXbXbXbXbXB.V ZXAXZXZXZXZXZXZX",
"ZXZXZXZXZXZXZXZX] o M d.H $ % O @ Y CXjXnXnXBXbXbXbXnXvXZX9 u 1.* S.ZXsXBXnXCXpX4XN.G ZXZXZXZXZXZXZX",
"ZXZXZXZXZXZXZXZXsXdX{ 6 i.! s.i.s.T @ H CXBXBXCXCXBXbXmXBXjX8 o | kXbXnXVXbXBXzXwXP.9 NXZXZXZXNXZXZX",
"ZXZXZXZXZXZXZX] ; 1 N <   l a.! s.d.R j V 5XbXbXbXbXBXBXbXCXOXY.iXnXbXbXnXcXCXuXqXn.9 ZXZXZXZXZXZXZX",
"ZXZXZXZXZXZX[ H E M : Q SX|   7 ! ! i.M # 5XnXcXBXCXbXBXBXBXmXCX} @ W.ZXbXBXiX4X@X*XN.U ZXZXZXZXZXZX",
"ZXZXZXZXZX[ K 7 O O Q ZXR.) 5XZ.. @ . < Q.4XlXbXBXcXnXnXBXnXCX| s 3.t D.ZXCXuXoXoXwXA.5 ZXZXZXZXZXZX",
"ZXZXZXZXZX7   F.;X!.yXZX .U ZX:XS.K.P.Y.5XjXbXbXmXnXBXbXnXSXZX9 e t.* } ZXyX@X*X=X7XL.5 ZXZXZXZXZXZX",
"ZXZXZXAXZX$XR.| V [.ZXZXx.L CXjXbXbXbXvXuXCXbXnXCXcXVXBXbXbXBX-XH . P -XCXuXOX*XqX].# 8 ZXZXCXNXZXZX",
"ZXZXZXZXZXZXZXG , N !.~.^ ;XCXbXnXbXbXbXCXbXCXBXBXBXBXbXlXbXbXZX].b.OXZXrX3XoXkX}.6 = 8 ZXAXZXZXZXZX",
"ZXZXZXZXZXZXZXV l.m Z.f.U ZXcXBXBXBXlXbXBXbXbXbXbXCXbXbXBXbXbXVXnXCXpX-X7XtXY.F l O.u 8 ZXZXVXZXZXZX",
"ZXZXZXZXZXZXZX[.K   F.Z.L nXvXCXBXbXbXbXbXCXCXmXBXjXCXbXCXCXCXyX6X0X8XeXK.F l u X.9.r > NXZXZXZXZXZX",
"ZXZXZXZXZXZXZXZXXX{ rX| L iX7XuXnXCXCXCXCXbXbXCXBXCX9X9X7X9XwXqXqXeXV.~ k r o.w.<.u z E.ZXZXZXZXZXZX",
"aX:XZXZXZXZXZXZXZXZXNX] G kX5XpXvXiX9X9X9XyXyX9X6X9X7XeXeX7XpXB.~ ` z q 7.e.9.+.*.e S ZXZXNXZXCXZXZX",
"aX;XZXZXZXZXNXZXZXVXZX[.] b.{ ` ) B.wXqXwX7XwX7XwX7Xb.` ` _ } k e 0 ,.e.2.1.1.@.7.e 6 ZXZXZXNXZXZXZX",
"rX;XZXZXZXZXZXZXZXZXAXZXN.. u w q g b.b.v.b.b.} b.} y q q w 0 1.e.w.q.,.+.X.-.-.#.h F.ZXZXZXZXZXZXZX",
"2X$XZXZXZXZXZXZXZXZXZXZX!.B 1.6.w.2.- 0 0 r = 0 - 0 6.w.w.w.w.0.2.2.o...*.:.:.;.q n ZXNXZXZXCXZXZXZX",
"dX;XZXZXZXZXZXZXZXZXNXCXZXS.. 1.$.2.9.9.q.q.0.0.w.w.0.9.q.2.,.2.,.X.@.&.@.=.%.X.t Z.ZXZXZXCXZXZXZXZX",
"hX:XZXZXZXZXZXZXZXZXZXVXCX!.g p %.@.@.#...o.2.2.<.2.1.6.6.+.@.@.-...@.@.=.O.;.0 S ZXCXZXAXZXZXZXZXZX",
"dX;XZXZXZXZXZXZXZXZXZXZXNXZXXX< p &.$.$.@.&.@.$.$...$.@.>.$.%.$.@.$...%.O.+.#.w x.ZXNXCXCXZXZXZXZXZX",
"aX>XZXZXZXZXZXZXZXZXZXZXNXZXZXXX< a :.o...%.&.>...$.$.-...O.o...O.*.$...%.X.0 C.ZXZXZXZXZXZXZXZXZXZX",
"sX;XZXZXZXZXZXZXZXZXZXZXZXZXMXZX%X< p p ;.O.$.@.$...$.O.-.-...$.$.;.$.%.@.- C.ZXCXCXZXZXZXZXZXZXZXZX",
"aX;XZXZXZXZXZXZXZXZXNXZXZXZXZXNXZX$X$ < p p %.:.&.%.+.$.%.-.%.$.=.X.p p - C.ZXAXZXZXZXZXZXZXNXZXZXZX",
"aX;XNXZXZXZXZXZXZXZXZXZXZXZXZXZXZXZXZX:X> < s #.i i i i i i a a #.g 4 % F.ZXNXZXZXZXZXZXZXZXZXZXZXZX",
"ZXsXZXZXZXZXZXZXZXZXZXZXZXZXZXZXZXZXZXNXZX:X@ X X O X X o X @ @   D.ZXMXNXZXCXZXZXZXZXZXZXZXZXZXZXZX"
};
