/* XPM */
static char *tree1672242446[] = {
/* columns rows colors chars-per-pixel */
"60 60 212 2 ",
"   c #370636",
".  c #3C0D3B",
"X  c #27103F",
"o  c #33103E",
"O  c #3D103D",
"+  c #4D192E",
"@  c #531D2A",
"#  c #5A1D2B",
"$  c #420F3D",
"%  c #491437",
"&  c #43143C",
"*  c #47183E",
"=  c #4B1C3F",
"-  c #551B3F",
";  c #6B173C",
":  c #751C3A",
">  c #5C272C",
",  c #562936",
"<  c #52213F",
"1  c #612A2B",
"2  c #692F2E",
"3  c #6D3326",
"4  c #6C3328",
"5  c #753928",
"6  c #6D3135",
"7  c #2C1647",
"8  c #3B1441",
"9  c #3B1A46",
"0  c #341A48",
"q  c #3A1D49",
"w  c #2E1B59",
"e  c #37214F",
"r  c #3A224D",
"t  c #362452",
"y  c #392652",
"u  c #362A56",
"i  c #382855",
"p  c #342D5B",
"a  c #37335E",
"s  c #381864",
"d  c #2A3B69",
"f  c #333562",
"g  c #3D3C63",
"h  c #343D68",
"j  c #471A41",
"k  c #431B45",
"l  c #5A1647",
"z  c #531E42",
"x  c #5D1C46",
"c  c #66164C",
"v  c #62184A",
"b  c #6A1A49",
"n  c #741945",
"m  c #7B1B44",
"M  c #621C52",
"N  c #4D2445",
"B  c #43244A",
"V  c #4D254C",
"C  c #4B2C4D",
"Z  c #522240",
"A  c #5A2243",
"S  c #592A4D",
"D  c #4C3347",
"F  c #442E52",
"G  c #4F2A51",
"H  c #522D53",
"J  c #5B2856",
"K  c #4C3455",
"L  c #463658",
"P  c #423A5D",
"I  c #583055",
"U  c #543659",
"Y  c #583658",
"T  c #5F355A",
"R  c #523A5D",
"E  c #6D2246",
"W  c #642749",
"Q  c #732246",
"!  c #752249",
"~  c #792349",
"^  c #622C50",
"/  c #702C51",
"(  c #663559",
")  c #4E1D7C",
"_  c #4D396A",
"`  c #533265",
"'  c #553B61",
"]  c #643961",
"[  c #2C406E",
"{  c #3B4266",
"}  c #35416B",
"|  c #3B4269",
" . c #3E496E",
".. c #2C4B78",
"X. c #374B73",
"o. c #324B76",
"O. c #3D4F7D",
"+. c #2C527E",
"@. c #33537C",
"#. c #395678",
"$. c #795E53",
"%. c #424669",
"&. c #474568",
"*. c #574768",
"=. c #474B76",
"-. c #424A7A",
";. c #544971",
":. c #45557A",
">. c #455A7D",
",. c #585577",
"<. c #654464",
"1. c #674867",
"2. c #69516E",
"3. c #6D5873",
"4. c #745D77",
"5. c #74637B",
"6. c #8F1F3D",
"7. c #901F3D",
"8. c #94213C",
"9. c #99223A",
"0. c #8C3D31",
"q. c #A82836",
"w. c #B62E31",
"e. c #B82F31",
"r. c #BC3131",
"t. c #C53733",
"y. c #C63834",
"u. c #CB3B36",
"i. c #D13F38",
"p. c #994831",
"a. c #DB463C",
"s. c #DC493C",
"d. c #E1533F",
"f. c #821C41",
"g. c #8A2D49",
"h. c #873040",
"j. c #9B3445",
"k. c #943448",
"l. c #993748",
"z. c #A33D48",
"x. c #B04547",
"c. c #CA5547",
"v. c #E25640",
"b. c #E55B41",
"n. c #DE6146",
"m. c #E76645",
"M. c #E96745",
"N. c #EB6945",
"B. c #EE7344",
"V. c #F07644",
"C. c #F27C43",
"Z. c #F48443",
"A. c #F68B42",
"S. c #F99342",
"D. c #FB9C41",
"F. c #5A1F86",
"G. c #2A5685",
"H. c #2A5985",
"J. c #285B88",
"K. c #3A5482",
"L. c #325D84",
"P. c #385D86",
"I. c #2C638C",
"U. c #376387",
"Y. c #32648D",
"T. c #3D7089",
"R. c #276692",
"E. c #2A6691",
"W. c #2D6B93",
"Q. c #286E99",
"!. c #376B92",
"~. c #25749E",
"^. c #2B739B",
"/. c #2C769B",
"(. c #367696",
"). c #2576A0",
"_. c #267AA3",
"`. c #2B7DA4",
"'. c #307AA0",
"]. c #415782",
"[. c #476988",
"{. c #497891",
"}. c #757086",
"|. c #887B8E",
" X c #32859E",
".X c #3B829C",
"XX c #2C81A6",
"oX c #2780A8",
"OX c #2B84AB",
"+X c #2C89AF",
"@X c #328CAA",
"#X c #3493A7",
"$X c #2C8BB1",
"%X c #32A1B7",
"&X c #6ACACF",
"*X c #948D9C",
"=X c #91959A",
"-X c #9B96A3",
";X c #9EA4A9",
":X c #A4A7AA",
">X c #A1A8AE",
",X c #ABAEB1",
"<X c #A7B1B5",
"1X c #A9B3B6",
"2X c #B6B7BA",
"3X c #BBC1C3",
"4X c #C4C4C5",
"5X c #D6CECB",
"6X c #D8D3CF",
"7X c #D6D6D6",
"8X c #DAD8D6",
"9X c #E1DDD7",
/* pixels */
"Z Z < Z N < < Z N < < N Y.~.+X+X+X+X$X$XU.L g N %.W.#X*.U W.D L OX$X+X+X$X#.< < Z < N < < Z < < < < < N < N < < Z Z Z < ",
"< Z < < < < < Z < Z < N #.XX+X+X$XOX`.OX#.N g | ^ I .X:.U.U.N K `.+X+X+XOX:.< < Z Z < < < < Z N N < < < < < < < < < < N ",
"N < Z N N < N < Z Z < < C I.+X$XOX#.%.W. .N { #.*./ >.W.U.H Q K ^.+X$X$X`.%.< Z < < Z < Z N Z Z < < < N N < N < < < < N ",
"< < < = = = < < < Z < = N I.XXW.I.B F } N F g P >.;.I U.K Q E F /.+X+X$X#.j = = = N = = = = = j < = = = = = = < N < < Z ",
"= = * O O . * < < N < & 8 I.`.o.H.8 O O . & a /.,.].:.!.T T N q H.OX$X$X@.. . . . . . . . . . . . . O . . . . $ & j = = ",
". . . . . . & = < < = O 8 I.`.+.} O . . . r X.XX[.;.W.Q.R Y.{ O i `./.W.... . . . . . . . . . . . . . e h p a 8 . . . . ",
". . . . . . . * N < j . 8 J.`.9 . . . . . p o. .W.*.{.U.( .XX.O t R.a y p . . . . . . . O . . . . .   } ~.J.J.d 8 . . . ",
". . . . . . . * z = . . 8 I.Q.9 . . . . . u g < o.L.#X*.^ (.D O u +.. . . . . . . . . . . . . . . .   f J.d d +.q . . . ",
". . . . . . . * Z & O . O f J.9 . . . . . r { F U =.@X*. .W.C . 8 p . . . . . . . o . . . . . . . . 0 [ ..u 0 [ t . . . ",
". . . . . . . * Z & . . . O p 8 . . . . . * g @.T E {.!.E.{ A & . . . . . . . . . O . . . . . . . . 9 u t B & t 8 . . . ",
". . . . . . . . j & . . . . . . . . . . . r g P :.( ' W.%.W E $ . . . . . . . . . . . . . . . O O % D +...@.@...y . . . ",
". . . . . . . . = * . . . . . . . . . . . k P L.,.:.R U.( ! - $ . . . . . . . O . . . . . . . O * > L X.` ` ` @.+.D + + ",
". . . . . . . . * & . . . . . . . . . . . * g +X,.:.!.W.R :.C . . . . . . . . . . . . . O O . e @.{ * V b v c M J j & % ",
". . . . . . . . O O . . . . . . . . . . . i ..W./.*.(.(.R (.@.8 . . . . o 7 7 7 o . . & 2 > , { L r O < Z - z z j . . . ",
". . . . . . . . . . . . . . . . . . O . . p | C L.%..X&.( .XP . . . . . X w ) s o . . $ > + < 9 O . O % & . O & . . . . ",
". O & H I I H I H H V V V O . . . . . . . p g Z  .Y.#X*.I (.C . . . . . 7 s F.e o . . . > & . . . . . . . . . . . . . . ",
".   <.5X6X6X6X7X7X2X;X;X-XG . . . . . . O * g { ^ S .X:.U.U.N O . . . . 7 w ) s X . . $ + . . . . . . . . 8 . . . . . . ",
". . <.9X8X8X7X7X8X3X1X1X>XH   . . . . . . k g @.;./ >.W.U.C b & . . & j $ X 0 8 % $ . . + . . . . . . . . . . . . . . . ",
". . <.5X2X4X7X4X2X1X<X1X>XH . . . O . . . r { P :.;.I P.U Q E . . O z n m f.6.m m l % + >   . . . . . . . . . . . . . . ",
".   <.5X=X,X7X2X=X;X<X<X>XH . . . . . . O = a /.,.:.:.!.T Y < O . & x c c c c c c c 1 > > & . . . . . . . . . . . . . . ",
". . <.8X7X7X7X7X7X3X<X1X>XH . . . . . . . r X.XX[.=././.R Y.| 8 . & z x x x x x v z & . . . . . . . . . . . . . . . . 8 ",
". . <.8X7X8X7X7X7X3X<X1X>XH . . . . . . . p o. .W.*.T.#.( .XX.8 . . = * = * = * = * O O { 8 . . . . . . . . . . . . . . ",
". . <.9X7X3X;X2X7X3X<X1X>XH . . . . . . . p g - #.L.#X*.^ .XF & . . . . . . . . . . . r  Xr . . 8 . . . . . . . . . . . ",
". . <.9X8X4X:X3X7X3X<X1X;XH   . . . . . . B g F U =.#X*.%.I.C . . . . . . . . . . . O @.XXr . . . . . . . . . . . . . . ",
". . N 4.|.*X*X*X-X|.*X<X5.8 . . . . . . . & { @.T E T.Y.W.%.A & . . . . . . . . O #.(.@XX.8 . . . . . . . . . . . . . . ",
". . .   <.|.3.4.5.2.H *XU . . . . . . . . t _ a >.] *.Y. .W b . . . . . . . O . O Q.%X`.9 . . . . . . . . . . . . . . . ",
". . .   <.}.3.4.5.2.& }.U . . . . . . . . r g F T..X.X/.K H =.8 . . . . . . . . . i (.^.t . . . . . . . . . . . . . . . ",
". . . . k z 3.4.5.1.. V j . . . . . . . . % g ' Y (.%X,.( @.I.8 . . O . . . . . . . i /./.9 . . . . . . . . . . . . . 8 ",
". . . . .   2.3.j k . . . . . . . . . . . i g ^ Q #.,.( {.(.L O . . . . . . . . . o q /./.k . . . . . . . 8 . . . . . . ",
". . . . . . k k . . . . . . . . . . . . . u g Z E >.&.>.*.^ < O . . . . . . . . . O (.@Xh O O . . . . . . . . . . . . . ",
". 8 . . . . $ . . . . . . . . . . . . . . k g L E >.W.P E E < . . . . . . . . . . t /.+X'.q . . . . . . . . . . . . . . ",
". . . . . . 8 q e e e e e r y y y y y y y }  .L K P Y.%.T U K y y t r y y y y y i (.$X_.^.p e y y y y 9 . . . . . . . . ",
". . . . . . i J.R.R.E.E.E./.`.`.`.`.`.`.`.`._.`.`.`.`.`.`.`.`.`.`.`.`.`.`.`.`._.`.`.`.OX`.`.OX`.`.`.`.o.. . . . . . . . ",
". . . . . . p J.H.G.H.G.J.~.~.~.~._.`._.).).~.~.~.~._._.~.~.~.~.~.~.~.~.Q.).).).).).~.).).).`.).~.~.`.@.. . . . . . . . ",
". .   . . . r ..G.o.+.G.o.K.~.Q.Y.W.K.].K.Y.).Q.~.Q.`._.~.).).~.~.~.~.~.Q.).).).Q.).Q.~.).Q.).).~.~._.@.. . . . . . . . ",
"a f f f f f F L | F P h C M -.L.` P.M c c ` K.].K.K.K.].O.O.K.).oX~.~.~.).Y.].].W.).).).).).K.K.).E.!.@.. . . . . . . . ",
"R.R.R.R.R.R.} < < < Z Z z v M _ J ;.M c c c c c c c c c c c c F.-.K.E.=.-.` c c ` K._ ].].=.c M -._ ( ` . . . . . 8 . . ",
"G.G.G.G.G.G.{ < < N < Z Z v c v c c c c c c c c c c c c c c c c c J ` c c c c c c c M c c c c c c c n ; . . . . . . . . ",
"_ P P P a P K < Z < < < z v c c c c c c c c c c c c c c c c c c c c c c c c c c c c c c c c c c c c m ; . . . . . . . . ",
"= = < < < < < < < N N Z Z v c c c c c c c c c c c c c c c c c c c c c c c c c c c c c c c c c c c c n b . . . . . . . . ",
"< N < < Z < N < < < < < Z v c c c c c c c c c c c c c c c c c c c c c c c c c c c c c c c c c c c c m ; . . . 8 >.i . . ",
"< < Z < N < < Z < Z < < Z v c c c c c c c c c c c c c c c c c c c c c c c c c c c c c c c c c c c c m ; . . O }.&X_ . . ",
"< Z < N < < < < N < Z N Z x c c c c c c c c c c c c c c c c c c c c c c c c v v c c c c c c c c c c ; : > 2 2 $.$.6 % . ",
"N < Z Z < < < N < < < Z Z A Z Z z Z A Z Z A Z z A Z A z Z A Z Z Z A z Z z A A A l z z Z z x j k $ $ % # 1 4 4 3 4 5 4 3 ",
"< < < N Z < Z < Z Z Z Z Z Z Z A z Z Z Z A Z Z Z Z Z Z Z Z Z Z Z Z Z A Z Z Z Z Z A Z Z Z Z A - O . . % @ 1 4 4 4 4 4 4 4 ",
"< A A < Z Z Z Z N Z Z Z N Z E ! ! ! ! ! ! ! ! ! ! ! ! ! ! ! ~ ! ! ! ! ! ! ! ! ~ ! ! ! ! ! Q : $ .   & @ 1 4 4 4 4 4 4 4 ",
"Q Q ! ! E A A A < A A Z A A ! ! ~ ~ ! ~ ! ~ ~ ! ! ~ ~ ~ ~ ~ ~ ~ ~ ~ ! ! ~ ! ! ~ ! ~ ~ ! ~ m f.c l j + @ 1 4 4 4 4 4 4 4 ",
"k.k.k.k.! ! ! ! Q ~ ! ! Q ! ~ k.k.k.k.k.k.k.k.k.k.l.~ ! ! ! ! ! ! ~ ! ! n g.k.k.k.k.k.k.k.j.j.g.~ l , @ 1 5 5 5 5 5 5 5 ",
"M.M.M.c.l.l.l.l.l.l.l.l.l.l.z.n.N.m.m.m.m.M.M.M.M.M.x.l.l.l.l.l.l.l.l.l.l.c.m.m.M.M.M.m.m.m.M.M.c.g.h.5 0.p.p.p.p.p.p.p.",
"C.C.C.V.N.N.N.N.M.N.M.N.M.M.N.V.C.C.C.C.C.V.C.C.C.C.N.N.N.M.N.N.N.N.M.N.M.B.C.V.C.C.C.C.C.C.C.C.V.N.N.N.N.N.M.N.N.N.N.M.",
"D.D.D.S.C.C.Z.C.C.Z.C.C.C.C.Z.D.D.D.D.D.D.D.D.D.D.D.Z.C.C.C.C.C.C.C.C.C.Z.A.D.D.D.D.D.D.D.D.D.D.S.C.C.C.C.C.C.C.C.C.C.C.",
"Z.Z.Z.A.D.D.D.D.D.D.D.D.D.D.D.Z.Z.Z.Z.Z.Z.Z.Z.Z.Z.Z.S.D.D.D.D.D.D.D.D.D.D.S.Z.Z.Z.Z.Z.Z.Z.Z.Z.Z.A.D.D.D.D.D.D.D.D.D.D.D.",
"N.N.N.B.Z.Z.Z.Z.Z.Z.Z.C.Z.Z.Z.N.N.N.N.N.N.N.N.N.N.N.C.Z.Z.Z.Z.Z.Z.Z.Z.Z.Z.B.M.N.N.N.N.N.N.B.N.N.B.Z.C.C.Z.Z.Z.Z.C.Z.Z.Z.",
"v.v.v.b.N.N.N.N.N.N.N.N.N.N.M.v.v.v.v.v.v.v.v.b.v.v.N.N.N.N.N.N.N.N.N.m.M.m.v.v.v.d.b.b.b.d.d.d.b.N.N.M.N.N.N.N.N.N.N.N.",
"s.s.a.s.d.v.v.v.v.v.v.v.v.v.d.a.s.s.a.a.a.a.s.s.a.a.d.v.v.v.d.v.v.v.v.v.v.s.s.a.a.a.a.a.a.a.a.a.v.v.v.v.v.v.v.v.d.d.d.d.",
"t.u.t.u.a.a.a.a.a.a.a.a.a.a.a.u.t.t.y.y.y.y.y.y.y.y.i.a.a.a.a.a.a.a.a.a.a.a.y.y.y.y.y.y.y.y.y.y.u.a.a.a.a.a.i.v.a.a.a.a.",
"e.e.e.r.t.t.t.t.t.t.t.t.t.t.t.r.r.r.e.r.e.e.e.r.e.e.t.t.t.t.t.t.t.t.t.t.t.r.r.e.e.r.e.e.e.e.e.r.t.t.t.t.t.t.t.t.t.t.t.t.",
"9.9.9.q.w.w.e.e.e.w.e.e.e.w.w.9.9.9.9.9.9.9.9.9.9.9.w.e.w.w.e.e.w.w.e.e.e.q.9.9.9.9.9.9.9.9.9.9.q.w.w.w.e.t.e.e.e.e.e.e.",
"6.7.6.7.9.9.9.9.9.9.9.9.9.9.8.6.6.6.6.6.6.6.6.6.6.7.7.9.9.9.9.9.9.9.8.9.9.8.6.6.7.7.7.7.6.6.6.6.7.7.7.9.9.7.9.9.9.7.7.9.",
"7.7.7.7.6.6.6.6.6.6.6.6.6.6.7.6.6.6.6.6.6.6.6.8.7.7.7.6.6.6.6.6.6.6.6.7.6.7.7.6.7.7.7.7.7.7.7.7.7.7.7.7.7.7.7.7.7.7.7.7."
};
