/* XPM */
static char *wallB1672242448[] = {
/* columns rows colors chars-per-pixel */
"60 60 210 2 ",
"   c #00020B",
".  c #000414",
"X  c #010A15",
"o  c #00051B",
"O  c #010B1C",
"+  c #080E1E",
"@  c #03121D",
"#  c #0A131E",
"$  c #000D23",
"%  c #000E29",
"&  c #021324",
"*  c #0A1425",
"=  c #061826",
"-  c #0C1926",
";  c #03142B",
":  c #0A172B",
">  c #05192B",
",  c #0B1A2C",
"<  c #101626",
"1  c #101A25",
"2  c #131D2D",
"3  c #181F2F",
"4  c #031730",
"5  c #051B34",
"6  c #0B1D33",
"7  c #061F39",
"8  c #0C1F38",
"9  c #111E33",
"0  c #111F39",
"q  c #0A202E",
"w  c #14222F",
"e  c #072036",
"r  c #0D2234",
"t  c #0D233B",
"y  c #0E283F",
"u  c #132334",
"i  c #1A2535",
"p  c #1B2937",
"a  c #14243C",
"s  c #1A263A",
"d  c #16293C",
"f  c #1B2B3C",
"g  c #212C3D",
"h  c #24323F",
"j  c #2B313F",
"k  c #0D2541",
"l  c #142542",
"z  c #152A42",
"x  c #1B2D44",
"c  c #152E49",
"v  c #1C2E49",
"b  c #192742",
"n  c #173044",
"m  c #1D3144",
"M  c #16314B",
"N  c #1D324B",
"B  c #1E384F",
"V  c #1D3552",
"C  c #1D3957",
"Z  c #1F3A58",
"A  c #1A3457",
"S  c #222E42",
"D  c #202E48",
"F  c #233344",
"G  c #2A3546",
"H  c #2D3846",
"J  c #23344B",
"K  c #2B364B",
"L  c #25394B",
"P  c #2B3B4D",
"I  c #263846",
"U  c #313D4D",
"Y  c #313745",
"T  c #243652",
"R  c #253A53",
"E  c #2B3C53",
"W  c #243C5A",
"Q  c #2B3D5A",
"!  c #2B3751",
"~  c #313E53",
"^  c #333F59",
"/  c #273E60",
"(  c #2C3F60",
")  c #274257",
"_  c #2D4155",
"`  c #27405D",
"'  c #2C425C",
"]  c #324255",
"[  c #3A4454",
"{  c #33445C",
"}  c #39465B",
"|  c #34495C",
" . c #3B4B5C",
".. c #3C4856",
"X. c #2C4463",
"o. c #2D4864",
"O. c #2D4A69",
"+. c #2E466A",
"@. c #334662",
"#. c #394762",
"$. c #344B64",
"%. c #3B4C64",
"&. c #344C6B",
"*. c #3B4E6A",
"=. c #3D5165",
"-. c #36516E",
";. c #3C526C",
":. c #3D586D",
">. c #344E72",
",. c #355272",
"<. c #3C5572",
"1. c #3E5974",
"2. c #355479",
"3. c #3C557B",
"4. c #3C5B7B",
"5. c #424E5E",
"6. c #414E63",
"7. c #404F6B",
"8. c #435265",
"9. c #4A5364",
"0. c #43546C",
"q. c #4A576A",
"w. c #45596D",
"e. c #4A5A6D",
"r. c #425672",
"t. c #445A74",
"y. c #4A5D74",
"u. c #445D7B",
"i. c #4A5E7A",
"p. c #515E73",
"a. c #4E6175",
"s. c #46617C",
"d. c #4B627C",
"f. c #4F697E",
"g. c #476074",
"h. c #526275",
"j. c #52647C",
"k. c #59677B",
"l. c #556A7D",
"z. c #5A6A7C",
"x. c #606470",
"c. c #606B7D",
"v. c #425E80",
"b. c #446384",
"n. c #4C6583",
"m. c #4D6985",
"M. c #4D6789",
"N. c #4C6A8C",
"B. c #536682",
"V. c #596781",
"C. c #546A84",
"Z. c #5B6D84",
"A. c #546C8A",
"S. c #5A6E8A",
"D. c #536788",
"F. c #4F708F",
"G. c #5D7184",
"H. c #56708E",
"J. c #5D738C",
"K. c #5E7A8F",
"L. c #4D6E90",
"P. c #586F91",
"I. c #557393",
"U. c #5C7492",
"Y. c #5D7A95",
"T. c #597799",
"R. c #58799C",
"E. c #616E81",
"W. c #637384",
"Q. c #63758C",
"!. c #657A8C",
"~. c #6C7A8D",
"^. c #6B778D",
"/. c #627692",
"(. c #647A93",
"). c #6A7D94",
"_. c #647B9B",
"`. c #6B7E9D",
"'. c #6E8196",
"]. c #6D839B",
"[. c #668194",
"{. c #73859C",
"}. c #79899B",
"|. c #6783A2",
" X c #6C85A2",
".X c #6B89A7",
"XX c #748BA4",
"oX c #7B8DA4",
"OX c #7188A8",
"+X c #798DAB",
"@X c #7184A2",
"#X c #7F91A7",
"$X c #7790AE",
"%X c #7C92AB",
"&X c #7593B3",
"*X c #7B93B0",
"=X c #7B9AB7",
"-X c #8195AC",
";X c #899AAE",
":X c #859BB4",
">X c #8C9EB4",
",X c #8297B4",
"<X c #87A0B6",
"1X c #8BA1BA",
"2X c #97A7BA",
"3X c #9EB7D3",
"4X c #8AA7C7",
"5X c #A2B2C7",
"6X c #A5BBD2",
"7X c #AEC0D8",
/* pixels */
"&.-.,.,.*.+.#.*.<.+.*.i.`.4 v _.3.>.+.r.o.) X :. X-.-.&.u.+.$.7 q X X = g.XXn.n.b.O.X.<.,.&.-.$.8.] =.f O ; C.$.-.C o.<.",
"v.i.i.u.r.<.*.&.*.@.*.r./.4 Q (.&.&.+.#._ ) & $.].;.<.&.*.+.;.N = X ; h.<XA.o.$.O.&.-.<.1.u.w.$.f m [ m & O d.:.$.&.u.s.",
"<.;.$.$.*.<.r.;.=.%.:.$.V.% t.Q.#.X.Q @.| _ ; _ J.$.&.&.r.$.;.m - @ O 9.}._ $.r.*.<.&.L J L D f f w p @ . O z.Q.E { ;.t.",
"$.| @.$.%.=.*.$.| | | _ %.$ p.y.&.Q T ] | I @ I !.%.@.{ *.=.=.F - # # 5.'.I %.%.%.$.T b x b s G [ ] h - @ * 8.W.0.%.$.0.",
"| | | ) _ $.=.=.:.w.] _ m @ 0.] #.Q J F I F @ d p.%.*.6.0.} E i #   # 5.c.D S D ' { ^ ^ 6.5...5.[ ..H - X O ..~.5. .| ] ",
"| :.t.w.=._ n r ; , = r > = e.8.^ #.^ s u p = , ~ { 7.7.{ D f w 1 X 1 w ~ ^ ^ ^ D E ~ K ^ [ ~ G [ H w O X : [ ~.q.p.y.8.",
"t r > ; e L | =. .|  ._ f , 6.%.Q #.#.K f w @ = , 6 4 ; $ $ ; = . + * o 2 D ! l 0 0 a 0 9 i g i # @ @ X o O O > f 8 s f ",
"=.:.w.d.C.!.G.l.l.d.G. .E > } } E Q *.w. .> X > s b T #.*.0.{ F ~ U G ~ J b v v ! l D T 9 O O * p h _ P L P P  .x O 6 0.",
"S.u.Z.C.7.%.#.7.%.w.^ a 0 a 7.*.( W V o.l.!.& e t.(.`. X,X>X%XS.Q.W.z.Q./.@X+XX.( *.B.(.0.t o _ -X{.[.'.].m.g.l.1XT _ 1X",
"d.r.i.t.r.i.i.7.*.#.J a x b %.%.W X.V M &.[.n > Y.$XOX_.P.n.u.;.*.t.%.@.@.M._.W / X.*.y.t.a., d :.g.g.$.$.;.w.d.).:.6 H.",
"i.n.P.i.7.i.i.0.@.^ T Q ^ b %.*.+.Z t M | K.) @ d.A.u.u.s.u.s.s.1.i.t.1.&.u.M.A v.3.,.$.y./.z N :.f.s.:.d.J.H.l.XXC.; n.",
"i.S.(.B.r.i.i.t.7.7.*.7.@.6 E ;.+./ ` 1.:.f.:.y C.H.v.v.b.i.s.:.1.$.X.&.+.+.u.>.+.+.$.o.f.0.& > ' &.o.` 1.m.C.C.].) $ d.",
"S.i.y.7.y.i.w.y.7.7.%.8.{ : ! 0.W +.+.r.=.f.g.e *.B.u.-.&.o.@.' W M N X.X.X.,.O.1.*.$.X.l.) q = :.s.:.) ) o.:.C.t.b o 0.",
").S.j.y.y.y.%.a.8.8.=.w.5.6 f m r.#.$.0.=.=._ = *.i.<.#.*.%.0.$.) | r.u.u.u.&.V +.r.t.| w.q w = | 1.:.) R =.y.f.J =.; E ",
"y.p.h.e.%.E F  .}  . . .P * u u ! E { ~ f - @ ; Q.Q.y.t.y.%. .| $.%.=.$.$.1.<.;.Q :.C.k.8.p w @ G.J.l.w.w.%.| ] [ 9.: , ",
". $ 6 6 d 5 o $ ; 6 > > 6 , 5.l.#.*.$.F  .e.F > s x b J D 8 f P | Q Q | ' Q Q %.=.L m I w w @ - ) _ ) =.=._ %.z.S.F w O ",
"w.R m M $ ; X.A O.X.W f.N a {.K.B.U.K.).W.l.%.x ; C.A.n.J.j.w.{ @.@.! b > & @ X @ , 9 * = @ # p z 6 z ; v d.d.D.d.%.; ' ",
"5XXX).t.,.O.4X&XT.I.A.U.Q 5 y.=.1.u.t.%.] t.0.8 <. Xu.-.X.| { { Q Q #.q.] w q f z.z.c.~.8.w @ h E N T z Q C.<.$.;.&.N #X",
"Q.k.h.y.$.W |.s.O.-.<.r.Q 6  .0.o.&.<.w.e.y.| 7 R <.Z &.Q ' T J Q W @.w. .p u I }.h.E q.9.9.h w 8.E x : c y.t.=.:.{ v ,X",
"h.p.8.j.%.Q J.t.<.;.t.=.{ ; S w.:.O.-.:.t.L 6 k &.-.Z -.&.Q J Q @.Q ! ! _ I p u k.0.P 8. .e.I # z. .K f P w.8.%.y.E $ p.",
"9.~ 9.8.j.J J.t.t.%.0.0.[ @ & [ s.<.b.$.t m t.].u.,.O.-.u.V J Q Q Q W R | ] m @ z.a.6.j.{  .g q c.[ g g } q.=.8.e.P : q.",
"i 3 K q.e._ y.#.w.;.0.a.} , : ] b.o.g.o.z {.1Xd.W Z O.,.D.R v ! ( ( @.{ _ ) u = a.a.%.%. .y.] u ~.5.i h 9.e.q.8.^ f * ] ",
"* = * P a { %.t.t.t. .e.u O O ; c Z s.&.$ y.d.c o.o.>.&.D.@.v ^ X.Q ) _ ) w q = m :.t.$.' =.L , G u * i F F s 6 d > o & ",
"& o ; & & R =.t.%.w.| t.u m ] ! ) C e 5 $ t.R | X.&.&.,.A.;.b R V W _ _ ) I r @ > 7 6 % 6 ; & & . O O @ ; s ' %.J b a 6 ",
"! %.t.l.Q N u.;.&.t.%.0.7 R oX].&X|.(.t.$ %.Q Q ` ,.4.1.o.v b E Q W Q L { _ = q 6 L $.' B d f _ a.} , x l.XX-XXX{.(.B.t.",
"a.C.(.{.$.v t.-.t.&.*.d.5 N ].u.s.1.d.=.; _ P T ` X.V c W *.7.%.Q @.#.J _ _ r f :X-X/.C.C.G.C.l.l.'.r $.:XK.S.d.n.n.n.i.",
"t.;.f.C.M k d.n.i.X.,.C.7 M (.X.o.o.$.| ; x  .=.$.' V R X.^ J x ! @.%.E | =.h d ~.).G.d.a.a.g.h.a.=.O ) ).d.s.s.;.u.n.i.",
"d.d./.U.N t $.Q i.*.t.i.8 L /.$.' $.0.=.u O f f Q T N V J s 9 S b D E ~ 5.8.h u a.J.(.G.g.:.=.:.g.| q $.).f.u.d.,.r.v.d.",
"y.y.Q.j.v N 0.Q $.t.=.L ; a t.{ $.-.:. .u . i f b ` | T ! ~ U G D D D F I I p f h.l.l.y.e.w.0.e.h.!.& L [.;.u.y.t.t.t.r.",
"j.j.h.{ a E e.%. .h.0.f a D w.y.:.=.| P * X f F d { 0.#.E D g S } ^ ^ H w @ @ u q.a.w.w.a.l.z.c.~.z.w f f.h.G.S.Z.B.i.0.",
"& 6 f , , F [ P I [ K : u a L E _ _ I g * O * O f L T v 0 * 3 K ! ! U G q X @ - [ #.} ^ | _ ] ..5.w h f F } P L u 0 5 : ",
"^ { _ d 6 x F F %.] ! x T x L m d u > & O m F D R ` R v ! ^ S : * : : = @ = d d u l 8 5 t d r q - p , , u > d J %.7.%.#.",
"C.C.H.s.e m.1Xm.` O.>.2._.`.2.v.*.Q.#.o @.C.A.N.4.>.2.,.O.b.H.&.L x $ 4 6 T ;.u.t.1.m.Y.u.N T <.u.X.X.<.o.V 4 >XOXS.A.U.",
"N.3.1. XM B 3X=X4.2.3.3.v.v.+.&.$.Z.Q.$ W A.O.O.4.O.2.b.4.4.4.<.d.%.; b Q <.b.s.n.b.n.N.H.S.A.A.4.N.N.b.u.<.V *XS.u.u.v.",
"D.,.H.(.n e H.<.&.+.3.3.+.&.,.,.0.h.p.o t u.s.n.2.s.b.b.4.u.s.u.t.6.$ ' t.f.A.S.D.C.M.n.M.S.S.n.n.Y.S.M.S.D.N i.*.@.*.r.",
"S.j.C.d u _ %._ X.*.r.*.o.r.j.y.k.y.K ; t v ;.<.4.m.4.<.s.D.f.y.y.0.; t.S.D.n.n.m.M.C.D.C.d.d.C.d.n.t.d.B.0.4 F d J %.B.",
"Z.V.#.u f P  ._ ^ 7.7.*.#.#.^ ] [ g , & 6 u ;.B.y.:.$.t.K.j.$.*.h.0.; *.j.j.B.d.$.&.t.i.d.y.u.t.B.C.l.d.| r o r 0.z.'.'.",
"$ o a * O h  . .B.V.B.E.i.D ; , * o , O o 8 E y.B.J.Q.Q.Q.d.y.W.).^ o s i.^.S.%.' i.Z.r.' { { F n N m b & O & = $ : & o ",
"{ K 0.P = h _ 9.^ #.^ ( S $ u u ~ ] 8.E s b ; ; : b c a 6 6 a c f ; 6 ; $ % b 0 8 ! Q b ; ; ; ; d t m =.=.j.].g.=.=.' N ",
"S.`.w.W.8.& = r 4 4 % $ o ~ 2X5XoX-XQ.(.K.l.Z.0.N 4 ; c %.@.T x s $ D b v J J % ; $ $ 6 x E { { g.<.U.1X:X<X6XXXN t.C.f.",
"1.*.=.J.(.d O 5 l T l r.b 0 ^.7.&.;.;.g.t.w.XXd.Q N t K.i.t.i.L %.6 ! y.y.j.s : d ; 6 -X}.^.Q.i.g.:.<.4.4.g.L.|.M &.4.<.",
"P.4.s.C.].t R Q.3XS.r.`.v.0 ^ 7.1.<.-.1.-.u./.$.l @.R Q.{ $.&.N Q J l w.q.w.0.x : $ u >XW.7.7.y.;.2.s.b.4.s.[.=X4.m.I.I.",
"M.1.s.m.[.e o.:X-XM.D.D.r.5 7.r.<.-.,.<.-.m.t.t R =.N S.=.r.$.$.E T a y.0.^ p.y.4 ; s }.7.6.q.r.<.s.m.N.s.2.F..XF.b.b.F.",
"M.M.g.m.m.c B J.r.D._.r.+.v y.7.1.-.2.1.g.XXf.t ! $.6 { $.t.#.$.R 5 b 7.y.0.7.p.K o $ k.%.*.0.0.u.u.b.b.b.4.b.L.[.N.b.N.",
"v.D.<.@.| M | l.D.P.7.B.*.b ^ { u.t.1.&.i.>XZ.D s %.S ; x P ^ N 4 l i.r.%.y.%.q.{ $ a } %.w.V.r.t.u.u.b.M.M.L.N.L.L.N.N.",
"M.M.H.R R t u.f.i.*.l i.^ 0 ~ w.n.M.D.a.Z.-Xh.f f [ F . i < s a W u.I.i.*.{ %.y.} O 0 8 x J r.S.r.u.v.n.v.v.v.v.b.N.N.N.",
"D.s.Q.@.J ; q.r.p.7.#./.{ s G 6.r.;.t.0.y.e.[ g G g + X Y g g E (.n.-.r.j.$.8.#.^.$ ; x ! 8 J `.d.S././.I.U.I.I.N.n.b.b.",
"l > x B ; ; q.V.V.7.B.^.^ ; o $ 6 $ ; ; 8 $ , i j i * - 5.9.p.^.*.3.b.r.d.$.#.#.0.6 ; o 4 a $ 8 b J E @.0.i.n.u.n.&.T M ",
"o ; & o O ; m J 8 t a J l v z k 4 o.H.K.d.s.f.d.(.J.c 8 e.h.5.k.<.n.u.r.<.#.<.%.i.6 o b r.V T N 2 O . O X o , $ o o o @ ",
"f . F ~.z.e.k.{ b -X].oX+X,XA.S.&.n.K.H.m.b.N.N.D.C.R a %.0.{ y.n.P.u.,.<.#.*.%.*.a l j.XXS.i.t.8.1 w 5.k.e.e.8.y._ u ] ",
"W.x e.5X).e.J.y.{ 7X:X/./.J.i.i.g.s.u.1.1.1.u.1.M.m.X.v #.0.6.6.V.U.u.&.r.*.$.*.E 6 7 j.(.Z.i.f.h.2 8.}.;X'.!.J./.y.m j.",
"a.F F w.] E w.h.$ *.Q.0.t.*.M.r.t.-.$.-.1.1.1.:.t.$.J 6 ~ 0.6.J u.M.<.#.t.=.{ 0.{ l ; *.;.;.&.B.y.: 8.y.f.y.a.d.t.u.z $.",
"] F 6 ]  .0.0.;.6 v /.d.i.0.d.@.:.;.:.u.u.1.1.:.$.T z ; D %.q.D @.t.*.%.t.0.Q w.%.J 6 w.&.*.&.d.0.; 0.;.t.f.i.,.r.v.v V ",
"e.E P Z.0.w.t.%.7 R j.=.;.S.r.y.<.1.1.1.-.-.$.-.*.' R > S ^ p.6.{ *.r.*.t.6.E 6.{ x 4 *.@.%.X.<.*.: 7.y.d.d.i.n.v.u.( &.",
"w.f F !.| $.y.t.7 { y.0.t.j.$.*.s.d.f.s.u.u.s.a.y.%.X.: a J p.q.%.7.w.0.0.0.^ %.8.F 6 #.%.*.$.;.*.: x J T ' ,.D.<.-.<.t.",
" .f f Z.w.y.y.t.z R r.r.y.%.y.a.g.s.d.d.l.C.H.G.S.y.%.: i D e.p.y.6.q.0.6.9.} 6.6.x 6 #.t.r.r.<.#.: 6 b Q y.r.=.r.;.n.*.",
"] r 6 ] y.0.=.r.t V 0.%.#.%.y.{ g.u.u.:.$.%.=.%.#.] m > 0 K ~ S K F S G G g K q.q.K 6 ^ i.@.<.%.E * s 9 ^ q.E E { #.{ ! ",
", @ O r c z k k % ; 8 7 0 6 b D t e e t t t 6 6 > , % O * 9 i 6 : * $ * $ * < S G 9 : l T 5 t 8 u   + < S : o ; : 4 : $ ",
"u f L { =.d.f.n.t.*.%.{ ! o o J :.) W ) L t $ ; $ * : : * $ $ o + o . . . . + 1 $ O s x v l v E 9.j < O + . 3 5.q.6.} ^ ",
"8.e.h.t.;.;.;.-.t.d.D.Q.Z.6 s {.>XY.C.l.t.J & 8  .9.q.e.5.K s i + * + . * < 3 g S S p.y.y.i.i.V.p.x.Y * o * 9.p.q.5.~ U "
};
