/* XPM */
static char *wallGr1672242447[] = {
/* columns rows colors chars-per-pixel */
"60 60 63 1 ",
"  c #282725",
". c gray16",
"X c #312D2A",
"o c #31302E",
"O c #353535",
"+ c #383735",
"@ c #393836",
"# c #3D3D3C",
"$ c #413F3D",
"% c #43413F",
"& c #444443",
"* c #494744",
"= c #4A4947",
"- c #494748",
"; c #4C4C4B",
": c #504F4D",
"> c #4F514E",
", c #52514E",
"< c #514F50",
"1 c #545453",
"2 c #585654",
"3 c #5A5956",
"4 c #5C5C5B",
"5 c #615F5C",
"6 c #5E605F",
"7 c #63615E",
"8 c #5E5F61",
"9 c #615F60",
"0 c #5F6162",
"q c #646363",
"w c #696663",
"e c #666867",
"r c #6B6966",
"t c #696768",
"y c #676968",
"u c #6C6C6B",
"i c #706B67",
"p c #716E6B",
"a c #6E706E",
"s c #72716E",
"d c #6F7170",
"f c #737373",
"g c #797674",
"h c #797876",
"j c #777978",
"k c #7B7B7A",
"l c #807F7D",
"z c #81807E",
"x c #848383",
"c c #888684",
"v c #898987",
"b c #898788",
"n c #878988",
"m c #8C8C8B",
"M c #91918F",
"N c #918F90",
"B c #949493",
"V c #989795",
"C c #9A9997",
"Z c #9B9B9B",
"A c #A09E9F",
"S c #A2A19F",
"D c #A2A2A2",
/* pixels */
"riwwiwwiwii55lwiwtuteeeayfkamZZZZADx;tkkjkfkj1-888888888w&7p",
"rriwwiiwi5w5,iiiiweydfduufxdNAZZDBmu-ujkfkjxx8-1888888887*wi",
"wwiiiiwwiwii,liidddutuuudkxtlmNDDDm91kkjkxxjje;;888889993;wr",
"577ww7w7i5ii=ilwddfayyajafjtxNNNNDN<;jkjukxxxy;#88184449::ww",
"55555w55w555%7hhjayajjjfblt2bAZBBZk&&818tettt1&&34844434=2q7",
"w5w577555:,*X,wufjffdyq482<$4tuf983<ujjzju888<-#23884444:3qq",
"55555522:=:&+,13udse3113-5ltl9<<jtdekfuuffkxkf1O<1443345:234",
":::*$*%%15riilgke3>;1qafgglpcg5-jjj119u9t008tj8#-<232234&;=1",
"l5+*uqulkkklkkkkll$$llllppippgll9zx81<888eqqeuq#<;315532$O5l",
"il5,8jxkpfsfgjfglll2ll52pttipgplufd<1<;&&;<88<<O--;;,,&:X1zw",
"3sg:-fkudupfffffl5l$l33lttwiiiplu98;8184811y1#-2**&$=$X*12g2",
"49g5<tffdfpuuudal5l$:ll5twwwwwiiddt<<-;11<;8<%8fiprwg5,ih-24",
"9<du18ujduuuuuuu5l5$*wllwwwwiiiitjf11-<;;;;1;-8twiiwi5:lf=83",
"4<88-4yudduuuuut5w,$$555wwwwwwwweu8#&;1;<<--&<ttw7iiiw2lr&83",
"4894-4dypauuyqqqw2*2w2l5wwwwwwwwau8#&#-&&&OOO-t95255555lu#18",
"2q4<-<uetttq841122lzl$5575wwwww9edjdf00018;#O#<#,%:%%,2iq#qq",
"673*;;734,336& 7llllxj-tq8tt884tffffjjkkkff#-8ddggsu732==&=2",
"#=,==$>=4244r3%fllwwju#1qtay-1qjdfddfuutfkj<1ddtwpssgkkksr3=",
"w74=&+2744q373=sff5wkt&9juqq-8utdddfffuftft&194823344774er7,",
"hkkjr=2433733,%rfi55ju1kkxmb<9kfddfdfffffj8#8918346477776wrs",
"ruhzk,,;22343=;sipqqa88jqfxx;-ytudduudaufj<O1019333333336227",
"urusu=22,,242&>suputa3qudufzt1attddddfddtt##<988q7767434744r",
"urusu=,,,,,,;%=3e9qe84ju9tfjyO8dtauttddu08O&<8841,,33336;,7r",
"wrrr7%==;>==*%,,;&---1xufqqjx&4q8u91811-8<.##;<-2,>1,;>,>7ur",
"weur33rr47qrshgaau8-#8kuuy9zj;1ue1<88-O%qaa94084=3,>;7;&7uir",
"wwrw66asasssuusafjky<8fdyfdu1O#1%8udfd8-18qytuyyffagkc3*uuuu",
"urauwrssrasurrrrttfy<8uydu9<1t88qfjytju&111qeqtu7rwuus,,uurt",
"reusyrurrr7quurqq8tq11uuddu;;98uft82<qu4123884447qqr7u37furt",
"r7rursjfgsr7qruuudkd<1ufdue--418088y8888;180ty04w74euu==utwt",
"w77336uauasauqrtytuq;<8881-#;8;1112841&O<1111qte776737*=3899",
"reur5777rwruu74q4<<<;48&-811-#-11;&&-&&-dq411113&>1,*=@%8tfd",
"MMCSVMMmzu227q94418418e11equjudufjfq;O1BBnzku1$#,6rssg,=jmZN",
"cMMmBBBDDZd-84<12237,,6%3375wiii77iz7>zCzMCCz6$6tfutufu#<mNx",
"nnmnNNnnBZk;4<<1::::%2w233533533353766zzMMznMe*7ud880ue&1NBx",
"NmmBBBNmnBz<1<>4,2,,,3i3355333533ee77>zMMzVVze*6ddeyaut;<nmx",
"xxnmxxmNnBf->1>;:,,,,7w%223333353777a%7zzVVzz6*68etuu98;4xNN",
"mnNNnmBmBNd&<18>,,,2,5w:3353533366>3d>3vMVznzy*>0dydyyy><jxm",
"xjkbnnmjxku&-;1;32,,=,7:33355355376363>hzzVMSj%*eye00yy1;yjx",
"813818t4808;;;1&,=*:%*1*%%,22>,,=3>6>>*7zVzMMa$%;<;<111&O;18",
"uqat-;yuudjdkju8*&=532q533353>>>3=*jsa>ezznsa>$>---88<-#10ey",
"BBmZ>18<8181118y<9ppsggfppuus999sa5asja3lle>>26rfdde8y&OaBBm",
"xxxN8<88111111801tttwtqq999tw525y73aasr333>>ry3>111110-#qcxl",
"jxkny<111181111819ttttq9999993<8e73rajhaae6>63>><--;;8--uclk",
"xkxnj<>11<<11<14<999tttutt9t94<9er37yhjlzjj>3%>>1<<1<1--fxll",
"jjkkx<<11<;11188<9999t9twttqt8<8ea>77irsaal373>%;;;<11<-tljk",
"jjjkk<<11<;<<;;<;999tt999t9t93<85r3eaarayys%>>%>;;;;1;;#4kjj",
"jjjkd;<;--;11<;;-4999u9t9ttq91<83y>7aayasas%*>>6;1<;1;<O<jkk",
"jjjjy<1>;>8fkjjf-49999499t9981<87r>>57>75>6>6l5%<8<-1;2O&fjf",
"88r3=*>,*6eye6yjj3-<111411<11<&87>6dzjaf10kjafuf<--;;-#@$$=2",
"ttuussr6>6yyye6ezfwete1-18ffxk1&>17kzkkxeeu828tff8-O;4quiiw7",
"tuppipgg=6eeaayyyaaudjq-kbbfkx8&ye66316a14q44834ua9&0tuullli",
"497326wa1udyeeyu0eeeajy1uuuydj1-66664643418448881dyO1<342222",
"32,,662:>quyyyyydueqqq1-44tyud8;13480e0481048q884atO41135355",
"35336663=40edue81;;11<--88ut8a8-4qq11146;;8898<1481O14442222",
"%w732,3710tyy414uafzxxnn8-188t8#-18ee0041<<<148841#O#*135222",
"%%,333%$@<qe41enbbnnxxnmD8-;<18004<>1431440qq8<114ey8;*;==:=",
"i5233ii75%2,<1tfetttytuuxmO&8xmBBBm-<8jjkznxx1-1adddtq311#7w",
"liilllllzi7%%tdtuauaddddkB11dNBBBZVe<ykkkkxzx1-14489qq444*ri",
"7iwiiiiishl,-dgruuuuuuuddNd0xZABBZDj;ykkjkkjk1-<1448489q7=ri",
"7wwiwwwi5wgi4ufptuettyuu8xftNZABBZAn&ujjjjkjk1-8yt98q9497*w7"
};
