/* XPM */
static char *wallY1672242447[] = {
/* columns rows colors chars-per-pixel */
"60 60 243 2 ",
"   c #251B00",
".  c #2A1D00",
"X  c #241700",
"o  c #321C00",
"O  c #2D2300",
"+  c #2E2901",
"@  c #262300",
"#  c #322401",
"$  c #352B02",
"%  c #3A2D02",
"&  c #3B2C0B",
"*  c #362809",
"=  c #3C3303",
"-  c #3D330B",
";  c #3C3808",
":  c #3C2C13",
">  c #362513",
",  c #3E3212",
"<  c #412D09",
"1  c #423404",
"2  c #443B04",
"3  c #42350B",
"4  c #443A0C",
"5  c #493D0C",
"6  c #493A08",
"7  c #412F17",
"8  c #443413",
"9  c #453B13",
"0  c #4B3D13",
"q  c #43341B",
"w  c #49361B",
"e  c #463A1B",
"r  c #4B3D1C",
"t  c #4A3414",
"y  c #503E1D",
"u  c #4C3E22",
"i  c #493828",
"p  c #523F24",
"a  c #4B420D",
"s  c #4A4307",
"d  c #52440C",
"f  c #534B0B",
"g  c #594F0E",
"h  c #5A540B",
"j  c #4D4214",
"k  c #4D431B",
"l  c #4F4A15",
"z  c #524514",
"x  c #544B15",
"c  c #53451B",
"v  c #554B1C",
"b  c #5A4C1C",
"n  c #59471A",
"m  c #5C531C",
"M  c #585118",
"N  c #64581B",
"B  c #615B0D",
"V  c #696419",
"C  c #4E4222",
"Z  c #534423",
"A  c #554B23",
"S  c #5B4C24",
"D  c #54442B",
"F  c #574B2A",
"G  c #5C4B2B",
"H  c #5B4528",
"J  c #5C5324",
"K  c #5E522A",
"L  c #5C5723",
"P  c #5D4B33",
"I  c #594635",
"U  c #5E5334",
"Y  c #614D2C",
"T  c #61492B",
"R  c #625424",
"E  c #645A24",
"W  c #6A5B25",
"Q  c #63542C",
"!  c #69562C",
"~  c #645A2B",
"^  c #6A5C2D",
"/  c #695725",
"(  c #634C33",
")  c #654C39",
"_  c #645333",
"`  c #6A5534",
"'  c #665B33",
"]  c #6B5C34",
"[  c #65533A",
"{  c #675A3A",
"}  c #6C5B3B",
"|  c #6C543A",
" . c #725C3A",
".. c #705836",
"X. c #6C632C",
"o. c #6C6526",
"O. c #73652D",
"+. c #7A6B2D",
"@. c #756A2B",
"#. c #7D742D",
"$. c #77722C",
"%. c #6D6333",
"&. c #6E623B",
"*. c #6E6838",
"=. c #736533",
"-. c #746B35",
";. c #7A6A34",
":. c #74633B",
">. c #746B3B",
",. c #7B6C3B",
"<. c #796537",
"1. c #7B7234",
"2. c #7C733C",
"3. c #7B7737",
"4. c #6C5D43",
"5. c #6B5A4A",
"6. c #755E43",
"7. c #644E43",
"8. c #736543",
"9. c #756B43",
"0. c #7A6C43",
"q. c #7B6D4A",
"w. c #776348",
"e. c #7D7344",
"r. c #7C734A",
"t. c #7C7541",
"y. c #7D6D54",
"u. c #7F7551",
"i. c #6F6542",
"p. c #816F2E",
"a. c #827B2E",
"s. c #82752F",
"d. c #826F34",
"f. c #816E3B",
"g. c #847334",
"h. c #847C33",
"j. c #82733C",
"k. c #8A763D",
"l. c #847B3C",
"z. c #8A793B",
"x. c #837443",
"c. c #857B43",
"v. c #8B7A43",
"b. c #83754A",
"n. c #857A4B",
"m. c #8A7D4B",
"M. c #897646",
"N. c #847553",
"B. c #857A51",
"V. c #8A7C53",
"C. c #89795A",
"Z. c #8D7A4C",
"A. c #887962",
"S. c #8A8235",
"D. c #8D8A33",
"F. c #8B833C",
"G. c #8E8A3A",
"H. c #878137",
"J. c #928D3B",
"K. c #908B37",
"L. c #94923D",
"P. c #99963A",
"I. c #8D8D2D",
"U. c #868143",
"Y. c #8B8344",
"T. c #8E8A41",
"R. c #8C834C",
"E. c #87844C",
"W. c #938C43",
"Q. c #93864D",
"!. c #938B4C",
"~. c #928245",
"^. c #959244",
"/. c #999544",
"(. c #9C9845",
"). c #96914A",
"_. c #9B944C",
"`. c #9D994B",
"'. c #8C8454",
"]. c #8E835A",
"[. c #8D8A52",
"{. c #928554",
"}. c #948C54",
"|. c #998E54",
" X c #92855B",
".X c #948B5B",
"XX c #998E5C",
"oX c #9B9354",
"OX c #9E9852",
"+X c #9C935C",
"@X c #9E995D",
"#X c #969156",
"$X c #A19C4E",
"%X c #A09C45",
"&X c #A39B54",
"*X c #A1965C",
"=X c #A39B5C",
"-X c #A6A15C",
";X c #A9A35C",
":X c #A9A456",
">X c #B4B05F",
",X c #B1AC58",
"<X c #948561",
"1X c #958B63",
"2X c #9A8D64",
"3X c #9A8C69",
"4X c #9D9363",
"5X c #9F9863",
"6X c #9D946A",
"7X c #969060",
"8X c #A19664",
"9X c #A39A64",
"0X c #A99D65",
"qX c #A1966B",
"wX c #A49B6A",
"eX c #A89D6C",
"rX c #A59B72",
"tX c #AA9D72",
"yX c #A79B77",
"uX c #A08F64",
"iX c #AAA364",
"pX c #ABA26C",
"aX c #A9A568",
"sX c #B1A56B",
"dX c #B3AC6D",
"fX c #B2AC62",
"gX c #B8B268",
"hX c #ACA273",
"jX c #ACA576",
"kX c #B2AA73",
"lX c #B4AA7B",
"zX c #B4A876",
"xX c #B6B172",
"cX c #BCB47C",
"vX c #BAB375",
"bX c #C5BD7F",
"nX c #B6AB82",
"mX c #BCB284",
"MX c #C4B987",
"NX c #C6BA94",
"BX c #CAC284",
"VX c #CCC394",
"CX c #D7CD91",
/* pixels */
": w [ { | { G ) | ) ) 5.p p ..f.3 {.zX2X*X8XZ. X.XZ.].qX>.j 2.c.v.R.=.# ' &.} } 4.F U } A r % 3 5 3 & Z 4.y.A.w.I I I i ",
"& * t 0 c H y Z w w w < o o y < # ..b.m.Z.+.b R R T A 0 ; 2.lXxXbXBX9X1 0 A F F u r k 8 % 4 # % = 4 4 4 9 * + : O : 9 e ",
"2XR.x.X.R N 3 % 1 t % # / d.Q.N # 0 = 6 n 5 N ..5 % & # $ 6XaXc.0XBXBX-.3 #   # & * O   a L X.2.1.v.U.R.E.X.$ v kXkXkXlX",
"sXeX0X0XsXsX0X0XuXMX=.6 zXQ.g.O.x m.M.}.0XuX*X{.tX0.! 3 $ hX5X5XaXT.X.-.m.4XB.r.j * % K qX4X[.OX_.`._.&X;XoX2 O.MXdXiX0X",
"oXoXoXOX&X&X*XoXpXQ.,.R Q.1._.o.R Z.x...;.O.x...b.0.B.K ; 4X7X#XoX!.#XaX4XwX].qX2XK $ J eX4X.X+X_./.J.W.`.oXs H.aX&XoX&X",
"+X@X#X#XoX!.*XoX4XR.J 2 +Xv.;.O.R x.f.k.f.O.f.d.x.B.B.A $ 6XlX7X@X#X#X[.c..X XeX.XK + A 5XpX+XE.W.W.W.W.&X&XM 1.0XOXoX&X",
"6X6X'.#X4X+X9X4X4XB.] 9  X X=.z ! ..f.M.v.k.k.M.x.0.>.F , *.6X.X#X@X@X#X.X9X'.V.1X! @ a 9.7X5X#X}.!.=XoX9X0X;.%.eXwX9X4X",
"yX6X'..X9X4X4X'.*.U 8.e { b.*.1 M.x.M.g.k.v.k.f.^ b J 9.k + t.wX#X+XE.X.*.r.e.'.V.K . 9 l A J l X.>.'.>.L R A J rXqXqXqX",
"u.9.K K l L L F 9 e e - - 9 3 % 0 / / d N f N W / ^ 0.z $ $ + M L L M M L 9 j c 0 % - $ + ; ; ; 3 = & $ @ X . & ' N.1X1X",
"- @ ; L m m a L r.E.'.]. XB.] j % . < <.d.*Xz.+./ 1 x X.-.2.*.t.2.; ].lXu.j e.:.b.H % # , , + ; 3 9 k K ' _ _ } F k 8 q ",
"; ; aXkXaX@X3.aX-X9X7XXX=XiXiX=XY o x.MXvXdXBXBXk.g {.MXmXBXBXBXVX7X>..Xl %.{.uX XV.B.].1X&.C r.mXlXjXlXlXlXhXhXn.' 9 # ",
"@ ; xX#XF.H.$.T.1.3.c.3.1.1.h.Y.~ @ Z.0XoXoX@XH.g g !.=XU.T._.OX+Xe.= x %.e.<.] <.M.n.'.].A k lXhX+X{.{.{.{.{.'.}..Xn.%.",
"M V iX$.#.D.S.a.#.G.J.W.H.a.a.F.>.+ A 5XE.F.V $.h.T.-XOX^.`.`._.iX~ 2 m.Z.d.Z.Z.M.M.<.f.m.v A VX}.!.!.}.oXXX|.|.m.#X9X+X",
"L E ).3.F.H.S.h.H.#.#.#.h.a.S.W.e.+ ; *.E g o.,X&X:X^.T.$X`.T.`.&X;.2 sXk.d.p.d.k.k.f.x.m.v 4 wX|.}.|.oXoX|.}.}.+X+X+X0X",
"L E [.Y.T.S.G.W.H.#.#.h.h.a.#.h.i.- + @ M o._.`.&X:X^.L.%XL.I.$X&Xv.d / ~.p.g.k.g.g.g.f.;.6 5 {.4X+X+XXXXX+X+X+X9X|.XX4X",
"9.J 0.W -.l.l.c.l.2.c.c.l.g.F.oXi.+ @ E.@X@XOX-XOXOXOXOX`.`.$X:X;X&X6 V k.g.p.g.g.d.k.k.-.j a ,.wX8X4XXXXXXX X}.'.4X8XXX",
"C.t y ` A Y } b.N.8.q.&.>.X.-.X.; + ; U.aX@X#XaX9Xt.'.{.l.!.oXl.U.c.s N ~.g.k.f.k.f.M.<.Q J 9 K i.q.B.<X3X<X1X X1X4XqXtX",
"p o < w < t w r Z D e @ + = = $ a @ @ l X.X.o.~ ~ K j 4 0 z a E f f + 1 R N / / b n S 5 % = O % ; j A ! 9.9.r.0.0.q.b.n.",
"t t S n y b n r O X   K '.5X@XdXjX[.~ s 2 a a 1 1 # X j S / d m ~ 2.2.,.^ 6 # % 1 . o . s L l s = = = 1 4 1 = = % % = ; ",
"( .. .! !  .^ Y G % 9 pXcXcX@XiXjXmXmXmXcXkX+X2.n.9 A mXlXMXzXXXkXkXmXmXnX2XT 1 o z {.XX5XaX@XOXT.).`.OX!.3.a = ^ ^ ! ! ",
"( ..Y S T b n z S 4 ! lX|.5XoX#X[.].7X#X7XaXpXhX.X3 c MX4X8XlX*X7X'.1X<XtXtX] 5 o b sXeX&XQ.^.^.%X:X%X$X&X!.M x / Q K S ",
") | T T Q A b A Q % K jX'.+X@X#X6X7X7X#X#X[.#X4X'.0 = 1X2XXXwX8X5X6XhX6X6X3X6.A 3 c |.}.oX_.`.G.L./.T.^.W.|.N X.! K F Z ",
"I 7.P | [ G } ] 8.8 r 6X6X4X}.4X.X.X7X5X5X+XXX+X>.b % r.hXtXwX8XwX4X6X3XyXyXq.r   1 XX8XiXOX&X^.h.).&XiX*XXXj S _ I u i ",
"i I i D e 3 A c r & # Z J K x ~ L U L ~ X.L m x 4 4 # S b.e.m.<.*.>.e.>.0.0.` 3 & # ^ o.l.F.T.$.$.U.U.2.X.%.+ r r q : > ",
"> i * & 0 b % z 3 # . @ # $ % = + 0 O + 2 = 2 = 1 3 0 - % % 5 x m s 4 M k v S A A  .x x x s = s = + = + + % % O # X X o ",
"> O q.hX8XpX0XdX0X*X|.{.Q.c.3.,.9 @ k 5XaX+X*XpXlXlXMXB.  4 2X8X!.c.a M eXeX2XqXV.uX XXX[.L + = t.3.U.c.n.+X9X8Xc.q.:.Q ",
"%   +XMX&X&X&X$X;X;XiX=X:X-X&X=Xv   B.VXwXaX*XXX+X.XqX9.  j qX<.2.}.N W pXR.j.v.M.x.>.0.m.>.A XXaX@X@X|.!.OXoXoX=X0X+X!.",
"4 $ oX&XJ./.K.J.K.L.^.J.F.^.`.OX%.+ jXlXt..X|.E..X4X.Xb.3 0  Xx.c.v.L v.Q.2.Z.j.M.,.<.>.b.' < uX+XT.T.U.l.F.h.1.h.h.F.l.",
"a + !.`.K.(././.J.`.`.W.W.W.oX=Xr.+ jX4X[.'.|.9XXX8X2X'.0 - n.b.b. .c |.j.O.v.+.+.O.f.M.V.] *  XT.3.F.S.F.W.H.a.S.S.S.S.",
"K   E.xXW.W./.G.$X`.oX*XoXoXoX9XC., 1X].+X'.R.}.+X XqX3XG Q  X=.b.q.Y {.M.d.d.p.z.d.d.O.<.! 3 XX|.U.W.Q.F.W.H.S.h.#.h.S.",
"i.$ >.kXOXiX-XoX=XR.x.b.b.0.9.9.q.e u..X+X#X=XXXwXqXjX2XK G 0.8.w.( t n <.;.g.z.p.p.d.d.x.x.S n.}.c.!.T.l.H.l.W.h.g.F.Y.",
"Z + @ A 2.oXc.c.n.~ j c S A c A K @ K [.2.,.R.{.'.8X1Xe.&.c ; S Z G 6.Y Q n j.M.g.v.k.x.x.,.8 j ,.X.-.X.M x L -.m.c.,.^ ",
"# < 3 1 6 z n c 0 o < t t 0 n n Z 0 5 5 6 z z 5 j j k $ ; ; + @ + + C U C e C { L ~ ~ X.%.F &   9 ; l A A K _ u q : * o ",
" .:.:...` ] ..` H w 6.<XZ. XQ.Z.m.Z.{.Z.R.R.-.$ 9 K i.'.6XjXaX#XE.*.i.u.U @ ; { '.[.E.E.u.t.&.' X.o.L K ' U * * p p H P ",
"( ( T T Y Y ` ` | y w.3XZ.f.k.f.x.:.x.>.x.m.t.$ 9.6X1XrX6XjXjXaXdX-XjXjXE.@ ~ dXaX>X>X>XgXfX;XiX;XxXxXcXBXlXk A ` ] } 4.",
") I P ( Y Y Y ( | t  .C.,.=.k.M.x.! b.x.m.x.b.; &.jX1X1X7X[.E.#X).).@X@X*.@ $.>Xa.D.D.D.L.L.D.D.^./.G.F.!.}.= j S K H H ",
"I I I I ( H H G y o Y C.x.f.k.M.,.Q x.x.n.t.b.9 + 6Xr.U 6X6X#X#X@X#X7X[.*.@ X.#X_./.J.K.P./.W./.G.G.W.)._.iX5 % J S H H ",
"7.7.P ( ( [ ! Y y & ! b.N.M.j.j.,.] q.=.,.m.n.j @ yX7XF E.[.E.[.E.t.E.u.*.+ ~ 7X!.!.W.W.OXOXoX_.;X^._.).*XdXR # Q _ ` _ ",
"I I p w 0 0 5 3 3 o < n ! O.W X.c c ~ R J R v #   { &.e k a ; 2 ; ; e C ; @ ; *.>.e.R.{.XXXX{.{.j.j.c.{.XX XZ . 8 w p p ",
"> & * o # 5 5 6 5 % % % 0 z 2 5 = % = 1 % 3 S ] i.C + $ @ ; + ; l C l ; 9 A ; @ $ ; 3 3 9 8 4 e 9 j & # 3 % # < * < 7 8 ",
"K . z Q.=XaXdXaXkX+X,.3 O % % 4 S V.wX8Xa $ nXnX<XC.A X v E.=X=XdXaXfXgXvXsX=X}.x d # . = S yX<X<XC.N.Z G C.N.N.C.C.<X X",
"=.6 v.vXfX:X:X&XQ.=XsXV.0   Q wXVXtXhXeX'.1 n.V.r.C.K + e.pXiXW.^.J.G.L.P.$X,XgXBXvXc.. 5 V.<XA G Z 7.G ` 2XV.V.M.Z.m.M.",
"E = _.gX&X(.^.^.W.).|.XX%.# N.lX.Xm.4X.X+Xj L 9.&.V.' $ U.+XoXW.L.P.%XP.P.P.%X$X;XiX8X% Q '. .c T p Y Y n m.,.j.=.+.+.@.",
"L + !.&X/.(.%X(.W._.Q.}.:.#  XqX1X9X0X}..XR . =   k 4 $ 9X+XF.W.L.G.I.I.I.P.P.^.&XQ.x.. } V.G _ | S R T 1 f.,.g.p.g.s.h.",
"] = #XOX^.`.(.L.G.).[.+X>.@ B..X}.[..X|.0XX.c 1X6X1X] ; 0XOXT.W.^.T.S.G.K.P.(.&X9X8Xq.  } C.P H H T Q b 1 j.j.g.+.#.#.s.",
"A 4 #X@X_.`.(.^.(.T.!.5Xn.= e.7X'.[.5X}.9Xb e.MXqXjXm.z !.oX`.F.!.!.W.^.G.G.G.Q.m. X:.& { y.P Z S ` ! n < =.g.;.+.+.+.p.",
"e 9 r.E.U.).^.(.^.).-X@X-.= ~ 5X9X@X@X[.#XL +X.X9XtX'.a g $.`.&XOX+XoX_.^./._.&XQ.%.t # P N.Y G H ( T t < R ,.M.f.,.,.j.",
": & j v M $.$.3.F.U.U.E = $ ; *.[.5X}.@X@.a 4XwX3X<X0.; + s o.@.%.%.1.l.h.@.h 1 2 6 z 9 c b.S G G [ T < 1 t n / S x z j ",
"L A J L x l s = + = - = $ ; = M J k m a 2 $ a S Z , i @ :   $ = # $ O % 1 . f B s.W.&X9XO.^ Q Z _ [ Z u 8 o 3 % ; 4 5 j ",
"aX7X5XpXjXjXhX6X3X} + n.jXaXiX}.~ # Q t.Y.l.E j > : i i I U K ~ { ` r 3 $ E =X;X$X$X&X).k.e.:.U P D [ K   q.lX3X6X6X5XeX",
".X}.+XeX9X5XrXhXjXq.c lXaXY.!.Y.%.@ ,.+X!.!.m.'.C I 5.5.5.y.&.9.4.y.A.8.- ^ {.Y.Y.l.l.l.m.0.i.{ [ &.} U 7 yXnXqX6X5X4X.X",
"[..X+X+X.XXX5X7XeX' A zXR.F.H.!.>.# %.Q.v.U.U.B.A e 5.I U D A F G D 5.[ * Q m.x.;.3.l.x.{.&._ [ _ } u 8 & <X1XyX'.]..X#X",
"*XuX*XXX+X9X8XV.tX! n 8Xl.z.h.G.~ = x X.1.$.c.2.k & U D [ F K A 4.i F q * S E.2.h.Y.Y.l.E.K 9 C r A r k % K  X6X4X6X9X6X",
"M.XXuX*X'.{.{.x.x.! n 0XQ.z.K.z.X.1 = = = = 2 O % * q u , t 4 # $ * , # # 5 O.E N B h h N 1 O # * 8 * * $ O k c %.%.%.>.",
"& 1 6 0 6 1 t t < < o N +.W.K.h.O.$ m j.Q.).c.x c S { u.A @ j v A v $ $ 5 1 f h B B h h B m f R 0 $ . % c 3 j b 0 1 = % ",
"Y < # t !  .<. .....f.1 d !.s.J.t.x bXCXxXxXxX+X2.r.tXNX X# B.MXjXb.= ,.dXaX&XfX,X>X,X>X:XfXiXcXm.- q.mXwX6XeX4X2X}.m.c.",
"N.* p 0.f.6...f.6.7...T 6 k.z.z.E 2.kX*XoX!.oX+X9XpXwXqX'.0 ^ qX}.{.4 c.wX9XOX&X:X/.`.`._._.oX@XV.% yXqX2X4X.X}.4X4XwXeX",
"6.* p | ( ) ) ) T T T T 6 d.z.Q.E =.0X+X|.oXoX|.+X8XXX2X'.j ~ 2X4X.Xc e.5XaX+XoXOX^._.$XiXiX+XpX%.+ 3XpX.X.X'.XX{.}.XX4X",
"( : ( ( T ) ) T T T T T 6 d.k.*XE =.+X#X|.+X|.!.=X*XXX+X Xv c 9.r.i.9 e i.i.&.*.U.2.2.-.2.L 4 k C @ r.hX].[..X[.+X8X8X+X",
"I 7 [ [ ( | | ) | ) ( ..y O.k.Z.X.-.9X+XoX+X}.Y.9X+X+X4X4XA % c F D C O , k C K ; a 4 a L k + e k   L 6X.X.X.Xc.'.}.m.>."
};
