/* XPM */
static char *wallG1672242448[] = {
/* columns rows colors chars-per-pixel */
"60 60 134 2 ",
"   c #242B1C",
".  c #222723",
"X  c #272D21",
"o  c #282E22",
"O  c #272C2A",
"+  c #2A2D2C",
"@  c #2D3325",
"#  c #263028",
"$  c #2D332C",
"%  c #30362C",
"&  c #333A2B",
"*  c #383F2F",
"=  c #2F3333",
"-  c #333733",
";  c #353A34",
":  c #393F35",
">  c #333639",
",  c #363B3A",
"<  c #3A3E3B",
"1  c #3C4235",
"2  c #36413D",
"3  c #3D423C",
"4  c #3E493D",
"5  c #404737",
"6  c #40453D",
"7  c #434A3E",
"8  c #393D40",
"9  c #403E41",
"0  c #3E4242",
"q  c #3E4942",
"w  c #424643",
"e  c #454A44",
"r  c #494D45",
"t  c #414548",
"y  c #49474C",
"u  c #464B4B",
"i  c #4A4D4B",
"p  c #455342",
"a  c #4C5245",
"s  c #4B5847",
"d  c #4D524C",
"f  c #4E5A4C",
"g  c #51554D",
"h  c #53594D",
"j  c #494D50",
"k  c #514F54",
"l  c #4E5352",
"z  c #4F5A54",
"x  c #525553",
"c  c #555A54",
"v  c #595C55",
"b  c #535658",
"n  c #565A5A",
"m  c #5A5D5B",
"M  c #556153",
"N  c #5C6255",
"B  c #5A6956",
"V  c #566259",
"C  c #5D625C",
"Z  c #5D6B5A",
"A  c #61645E",
"S  c #646A5D",
"D  c #686F5F",
"F  c #5C5E61",
"G  c #605F64",
"H  c #5E6363",
"J  c #5F6769",
"K  c #626563",
"L  c #656A64",
"P  c #696C65",
"I  c #64666A",
"U  c #666A6A",
"Y  c #6A6D6B",
"T  c #657263",
"R  c #6B7265",
"E  c #6B7965",
"W  c #66716B",
"Q  c #6D726C",
"!  c #6D7A6C",
"~  c #71756E",
"^  c #73796D",
"/  c #6B6E71",
"(  c #6E7272",
")  c #6F7972",
"_  c #6E7678",
"`  c #727573",
"'  c #757A74",
"]  c #797D76",
"[  c #747679",
"{  c #767A7A",
"}  c #797D7B",
"|  c #807F7D",
" . c #72816C",
".. c #758271",
"X. c #7B8175",
"o. c #778178",
"O. c #7D827C",
"+. c #81857E",
"@. c #848B7D",
"#. c #7C7F81",
"$. c #7E8282",
"%. c #828583",
"&. c #858A84",
"*. c #898D85",
"=. c #848689",
"-. c #868A8A",
";. c #8A8D8B",
":. c #908F8D",
">. c #869381",
",. c #8B9285",
"<. c #87918C",
"1. c #8D938C",
"2. c #91958D",
"3. c #939A8D",
"4. c #8A8F91",
"5. c #8E9292",
"6. c #929693",
"7. c #989795",
"8. c #959A94",
"9. c #989C96",
"0. c #929799",
"q. c #969B9A",
"w. c #9A9E9A",
"e. c #99A28F",
"r. c #9DA29C",
"t. c #A1A49E",
"y. c #A5A89F",
"u. c #9B9FA0",
"i. c #9FA3A1",
"p. c #A2A6A3",
"a. c #A4A9A3",
"s. c #A7ACA8",
"d. c #A9ACAB",
"f. c #AEB0AB",
/* pixels */
"6 w 4 w 7 e 4 : a & r 1 7 7 5 5 5 a r r < O > > > 9 9 - + * r v p a c e f r $ e 5 4 5 ; % 5 a 6 ; w , 3 e 3 6 3 3 r e 3 ",
"c N K P R Q ~ ^ h 5 N h S A A v ^ S 6 g G / [ [ | =.=.Y 9 g | *.r.3.2.1.<.R g ' *.&.<.@.+.<.1.O.$ C R ] } Q o.%.$.o.P d ",
"w.r.a.a.y.r.t.a.' L >.&.3.,.@.@.+.Q r | :.d.0.:.7.=.:.[ 7 v @.7.%.^ ' +.&.A a &.8.2.8.2.&.2.6.O.r %.9.r.9.1.r.t.r.3.' c ",
";.*.&.%.o.^ Q Q C a Q R ^ D R S Q D r :.:.7.#.| #.G / I a S :.| ] K Y [ ` g w ] } ' ' ~ L Y ) L e Q Q Q ' ' } Q o.' H i ",
"%.' ) [ [ Q P L H d Q Q ' Q ~ Q ~ D 6 | D | / | ~ k Y Y g A | P ( Q ( Y ( n i _ L U [ ( K H U H l ' Q Y ' } $.) K P v i ",
"$.( U [ } [ ( Q v a Q R ] ' O.o.| P 9 P P [ ` ~ I m | Y 9 g ~ ~ H / ) K P K l ( H L { %.` Y P H , H Y P P L ( P ` [ H d ",
"#./ U [ { [ ( ) c i Q Y ^ Q ' ` A A i P Y ~ P A P P ~ A r g A P ( { { U / F 0 H I H Y [ ( / U F q U Y ( U v K U Y Y m y ",
"b u u b n l l m i 3 H v m g d d g v a y y w k g k k r 9 9 6 6 9 , , 0 8 j 0 + u l t 0 u u i j 0 , i u l l t d b t i t 8 ",
"$./ / H l + l c l c H L A P L g g k g y g v D D g y v P | ~ P ~ I Y > + b F H Y H m n t + i u b t i j l H J u b ( ( ( ` ",
"u.0.0.=.Y t } 0.a.a.s.p.9.8.+.C | *.:.:.7.t.7.7.~ | :.:.:.:.:.;.-.;.n b } =.-.-.q.0.5.$.J ;.4.0.p.p.i.6.0.#.C ( w.q.q.6.",
"#.#.-.[ m 0 { 8.*.%.<.6.8.8.+.v | | *.:.:.:.| | 7 D | P P ` [ G ( ) t t Y [ { ] %.$.} I j #.%.%.[ [ #.{ { H j I 4.-.$.#.",
"U L Y L m 0 Q ] Q P Q ^ ^ ~ C < Y / Y Y P | | A r | | Y P [ | ` { ' d b ( $.$.$.} } ( m e } $.$.{ ( #.{ #.F j #.( / U U ",
"W P Q P H a ~ ' O.' ] ^ P S h 5 Y Y Y Y ~ | ~ R 7 A | ~ P ~ | | Q L e a K R ] ` ( Q P c 3 ~ ( Q / J / I _ b 0 I ( / / _ ",
"Q Q ` K v e ` X.^ T R E S A N a Y / [ ` ~ ~ A A h A P ` / / [ [ ) P d m K K ' Q ' ` Q P g ' Q ` H F F H _ I l / _ ( / _ ",
"C N C c x 7 P L S N L R N h 7 5 P / ` P A A v h g h v m v v b F N g e g a p c f N h v M e Z a x J H F n H F 8 F F F F J ",
"3 $ $ - e 1 p $ 1 : 7 N h h h 5 r k v k a 7 h v v A G v v G v 9 e e 3 a 6 : w 3 a 3 a x 3 h 3 e t u j 8 j j > j t 0 8 8 ",
": e P ' X.+...&.+.@.@.N N X.X.@.| 3.9.3.r.O.C &.$.1.2.1.3.,.R a N P ~ Q P C S Y N e 6 v R Q L A I ( b , ( ( U #.F F b l ",
"C ` 9.w.w.r.9.r.3.3.@.D D @.3.e.e.@.@.3.e.! n 5.<.>.O.' ' ..E N ' +.1.9.9.6.<.*.' C P <.r.r.r.8.6.q.} H 5.-.=.6.q.q.q.7.",
"r U -.o.' O.] O.@.E D 7 h @.X.X.E N S D Q x e O.P Q ) ! ^ T h 1 Z K Q ] O.X.Q K L w v +.&.+.*.o.o.$.H e [ ( Y [ { { } } ",
"d L o.P K ] ] ] ] R D h N ..' ~ E ^ ] R T K c Y { ' Q T D D N s ^ Q ' ] +.O.' R ' a K 2.&.O.;.} O.} K l } o.$.&.} } ] | ",
"u m ( K K } ' ` P A A h v Q R R D D ^ P L P H Y P L K A S S N a K R ) ' ` ) Q Q S < c O.) ` &.} Q L m e ) ' O.+.-.%.%.o.",
"l F ( Y Q $.` Q ~ P P v v R Q ) D v S P S A N ] S L Q ~ ~ S s 3 v A Q ` ) Q P Q K e C ' Y R o.' Y L K a Q R ' ' } ] ^ Q ",
"0 q n i u i t u c d x 6 0 l d d S g v v r 6 ; w d e 6 3 6 7 7 6 x c m m x a a d a i d N l x v c v x g 3 a e x h r a a r ",
"H m K l e u u n m b m x c C l i h v ] ^ Q O.' L e r c L ' ] ] ' ' Q S c e w w e 3 e d d r d a i h d g : 3 1 7 3 a a h h ",
"q.-.8.5.1.> R d.i.5.q.q.5.i.6.c | :.y.:.e.7.@.| ' w 7.7.f.t.t.8.6.r.;.x R &.w.1.1.1.r.6.n m 8.1.6.r.w.<.3.&.h r 3.3.,.3.",
"%.O.*.] o.> H -.H H ) ` K [ [ b D | | | | | | | Q r 7.*.7.+.+.| [ O.Y w Q %.6.5.8.5.8.6.H L 8.-.<.&.&.O.1.X.h N :.@.@.@.",
"Q Q ' K R < m R H C Y R H ` [ m | | | | @.| A | A r :.| | [ } ] { } L t { $.$.&.$.[ ' [ b c o.Y O.Q R L Q K 7 a P D S S ",
"P R P S R w C P Q H C A L [ Q x Y P | | @.| | | g r | Q | / [ ` %.$.I e _ ( Y [ { [ ( ( n H $.( %.' [ Y R P c c ^ E D R ",
"R T S D P : e C ~ K C P ~ | Y G | | G G | A | | v v | ~ Y Y [ ` ` Y F u ) ( [ %.) ) Y U l n [ / ( U ( H C P v e ^ ~ R E ",
"D R S R S 1 7 v v m C K K m v v k G G G A v 7 g r g v m A v G G m b b e K U ( / Y [ Y I n n Y U / H ( H b H l w A A N h ",
"  * & 1 1   X X : 1 < w i 6 9 w 9 k 9 9 9 r 9 5 r g k v k 9 9 G I n I n I H H , u b l l j 0 b j n 8 j b u u 3 3 e 7 1 : ",
"& h N D ^ ' ^ S v g a A } +.| | :.| P k h | | :.| :.| :.| k G =.q.-.i.0.6.;.$., [ %.$.=.-.=.0.=.#.l / 5.5.-.1.i.q.2.*.&.",
"1 O.y.r.6.2.2.2.<.L q &.i.5.s.r.8.s.-.d ` s.1.&.~ K K ` U b m %.O.L C P Y P m u -.-.-.4.-.$.$.$.Q 2 o.4._ $.#.$._ #.#._ ",
"e { 5.o.) ' { o.{ v 2 O.<.Q $.) O.=.( l U +.P [ Y Q Y L L n C ' P A P ~ Q Y v , -.;.=.$.#.{ _ I H 2 W { H _ / _ $.$._ I ",
"e ( { C n H U P U j 3 O.$.H W L L Q L i m Y c K K L C C L c c ' ` R Q Q W ) H 3 Y ( [ ( _ { _ J P q _ o.J _ _ _ / / I / ",
"l ' o.P ( o.o.{ ) c d $.<.P Q ( K { ) i g ` Y L ' ` L ( ' c l O.Q S A L L P v 3 H Y ( U / / I F n 4 W ) H J H H F F I / ",
"e H H c C W P W ) d i W ' H P L Q _ Q 0 w L K C K L N v n 0 3 v S l v Q ) P v 3 i f n C H K H m V f J L n J H F _ I F F ",
"d l i 0 e q 3 e d - = u z x c c C a d < > < , e = < 3 > $ 2 t < 3 % % , 3 3 w 1 = = > 3 8 , , 0 7 2 4 2 > 0 0 8 > 8 9 9 ",
"O.{ Q Q Y l w l c u l v C P P H e 3 N C h x d C d - 3 v m Q X.R ' ' P e < C O.O.1.&.%.*._ v v P T J V B J J J z y U =.-.",
"r.0.6.r.8.Y x C 5.5.r.8.-.5.1.$.e K q.r.2.p.p.r.6.3 r 1.6.<.9.w.*.r.9.N w Q r.6.%.] O.1.+.L ) 1.<.<.<.<.q.q.4._ J -.u.;.",
"| G P A v v & A %.] / P G m m P e X.6.] C Q X.' R e a ,.' ] ~ Q *.+.Q m 6 } %.1.X.C X.~ ] g ` o.] T O.W ! _ $.l Y [ Y K ",
"P G P G G | 9 | ' ` ~ ~ Y P G P e Q &.^ L R ~ P ` a x &.^ ] ' ~ P ~ Q g : R Q Q K c ] ^ ] a L ^ o.R O.) { ) } n G / Y L ",
"| | | v v | * k Y P Y Y P A m A a L X.^ Q Q Q P P e e Q L ^ X.o.o.%.O.C < C A N ^ L ! R A 7 c T T S W T ) T H i A Y ~ Q ",
"P v A | G P y | P K G A G A G A g N Q ~ Q R R R ^ c a S L ^ %.*.o.Q ! c w K R ~ O.@.] ^ S h h R Z L Z J W J V z m U P P ",
"k g k v y g y g v v v A A P P Y e g N A C C Z A N e w e a a g d P d x e 6 r a v a N M S N a 5 7 s f s f z f i d x n x g ",
"y 9 9 k 9 9 9 r y y y y 9 9 9 y : 1 7 3 1 5 3 1 h h M h Z x a 3 ; . 3 3 3 % $ % 5 5 & @ 7 1 @ & 1 4 3 1 # ; , 0 r i w w ",
"A 9 r | | | :.:.| :.:.| P A P | &.&.@.O.X.O.Q N ,.1.9.@.r.3.1.o.0 i &.&.2.6.3.,.^ P 7 & D S S D Z W T B ; f L P P P A L ",
"7.A | y.7.:.:.| :.:.| | v g | y.3.3.,.X.X.+.T w <.2.1.Q *.+.O.) < C r.&.*.*.2.] 3.+.D 7 3.,.e.,.1.e.2.$.i _ 6.2.6.6.:.2.",
"| g v 7.:.| G G G G m P y 7 @.| @.@. . .D Z R l $.J #.J #.$.#.=.r K [ V U %.P L N P 0 x <.X.' } ` ) ( Q 3 L ] R ^ | R A ",
"| k v :.| Y | | G ` Y | A g @.R D | D E S B J q #.b J J $.4.$._ u v P v H o.L C H P 3 l o.} o.O.[ / ( ' a P ] ^ R E D A ",
"v A A | | | / | G Y G ~ v 7 | N D  .D  .! W W u _ J _ / 4.0.$._ u v ) Y P ' Q [ P H 0 e L Q } } Y H K K 6 a Z C S S S A ",
"v v g | G G G k I Y A P g h R D B B B B V V z 2 J F J F J J H b 0 w c n v C H L P m u d K ( } { { ( / Q c v L R D D v N ",
"v k w k 9 9 9 G y r w r 7 7 v h f 4 s q 4 q q = j 0 > 8 > < 9 9 i > = 0 0 t e : , # $ > 3 e t l u t u l r 0 a a s h g a ",
"{ { ] | #.[ 9 9 g v m A S S A N B f T  .T o._ _ _ n = j I ~ [ / Q ) ) P q , H v i e u r r , o u u j n b H a w ; 4 N P T ",
"7.7.7.w.7.:.k k 7.7.r.t.y.y.3.3. .B O.3.8.i.r.q.4./ t { :.7.:.7.*.8.r.-.d e &.-.8.1.8.5.5.U d -.0.q.i.;.r.3.,.' x O.9.6.",
"%.| [ Y Y [ y G :.:.:.| :.:.| +.T M ..$.$.<.W J I x - ` [ U A P ' ) L C w l =.' } } O.o.$.m 0 5.[ #.[ n } O.O.Q a X.,.X.",
"[ ` [ Y ` Y k k :.| P ~ | ~ P ~ M B o.! Q W ( J H H > K v ` ~ | [ { Q C w x O.{ ) $.o.' Q l d ) J J I / U ' ' A a @.] Y ",
"/ / [ I / Y g v +.^ Q ~ ~ | ~ P f f o.! ( Y ( Y U J < U G | ` | ' } ) H e l } Q Q O.} [ Q l d ( / / _ ( U ) Q v c &.X.Q ",
"I G Y G Y P k g P P P ~ ~ Y P P x a ) T Q U U K K G 9 L A ~ Y ~ U ) Y H e l ` K P ' ` Q P l u Q / I / / I Y L d r ' R U ",
"G G G m A A r i v v A P A P G D c s ) H I n n z k k > v v A A A m H N c w r ` A H Q L K H i e U F F I I J P H j 3 C v c "
};
